<mxfile host="app.diagrams.net" agent="Mozilla/5.0 (Windows NT 10.0; Win64; x64) AppleWebKit/537.36 (KHTML, like Gecko) Chrome/132.0.0.0 Safari/537.36" version="26.0.6">
  <diagram name="PÃ¡gina-1" id="7xEHk5Z3akLHQhXc22Am">
    <mxGraphModel dx="2790" dy="1230" grid="1" gridSize="10" guides="1" tooltips="1" connect="1" arrows="1" fold="1" page="1" pageScale="1" pageWidth="4681" pageHeight="3300" math="0" shadow="0">
      <root>
        <mxCell id="0" />
        <mxCell id="1" parent="0" />
        <mxCell id="YXAz1OWxP_jkYVnMhaAE-3" value="&lt;div&gt;&lt;br&gt;&lt;/div&gt;" style="text;html=1;align=center;verticalAlign=middle;whiteSpace=wrap;rounded=0;" parent="1" vertex="1">
          <mxGeometry x="1480" y="271.8" width="470" height="30" as="geometry" />
        </mxCell>
        <mxCell id="YXAz1OWxP_jkYVnMhaAE-13" style="edgeStyle=orthogonalEdgeStyle;rounded=0;orthogonalLoop=1;jettySize=auto;html=1;" parent="1" source="YXAz1OWxP_jkYVnMhaAE-5" target="YXAz1OWxP_jkYVnMhaAE-7" edge="1">
          <mxGeometry relative="1" as="geometry" />
        </mxCell>
        <mxCell id="YXAz1OWxP_jkYVnMhaAE-17" style="edgeStyle=orthogonalEdgeStyle;rounded=0;orthogonalLoop=1;jettySize=auto;html=1;entryX=0;entryY=0.5;entryDx=0;entryDy=0;exitX=0.652;exitY=1.011;exitDx=0;exitDy=0;exitPerimeter=0;" parent="1" source="YXAz1OWxP_jkYVnMhaAE-5" target="YXAz1OWxP_jkYVnMhaAE-10" edge="1">
          <mxGeometry relative="1" as="geometry" />
        </mxCell>
        <mxCell id="YXAz1OWxP_jkYVnMhaAE-5" value="" style="image;points=[];aspect=fixed;html=1;align=center;shadow=0;dashed=0;image=img/lib/allied_telesis/computer_and_terminals/Personal_Computer.svg;" parent="1" vertex="1">
          <mxGeometry x="1390" y="170" width="45.6" height="61.800000000000004" as="geometry" />
        </mxCell>
        <mxCell id="YXAz1OWxP_jkYVnMhaAE-7" value="" style="shape=image;verticalLabelPosition=bottom;labelBackgroundColor=default;verticalAlign=top;aspect=fixed;imageAspect=0;image=data:image/png,iVBORw0KGgoAAAANSUhEUgAAANEAAACJCAYAAACy5911AAAAAXNSR0IArs4c6QAAAARnQU1BAACxjwv8YQUAAAAJcEhZcwAADsMAAA7DAcdvqGQAADV9SURBVHhe7b17lBxXdej9O6de/ZjpGfV4NHqPLEsWlvELjLG5NtiOIbExcRYBExYQCCGJSfJBLhDywcqX9w0JCRDgQnACN5fXNQ+HBIwN1wEs87IB28iWZVuWLGn0Ho3m1TNd3dVVdc73x6mq7nnIljWWbDT1W6vW9HQ9+9TZ5+yz9z77iHUfO6TJyck5YeTsL3Jycp4euRDl5CyQXIhychZILkQ5OQskF6KcnAWSC1FOzgLJhSgnZ4HkQpSTs0ByIcrJWSC5EOXkLJBciHJyFkguRDk5CyQXopycBZILUU7OAsmFKCdngeRClJOzQHIhyslZILkQ5eQskFyIcnIWSC5EOTkLJBeinJwFkgtRTs4CyYXoOU0MWpgNjVQSnXxuBgGgs629D9ACqfJXe6oQed655zIxWtv4epJfqxylbvUA0LDLsw8k9EO2BCVsBWChtUCI/NWeCnIhek6j0Vryjkt8brpwKREWNpgeagYWw8Br/3ULw3I1toJIgq2sWcflnAzyPv85jUCIiIJjA3VsrUFBhDVjg5i+5AwrtpHKwc7VuVNGXtLPaTTNIKIZRoBDIARIsIlnbHT0TZYWhDhAMj7KOenkQvRcRkscp0K3KAJgEwEtwPRGnccBWLIHJUOkaM2j8uWcLHIheg6jgSG/0fG/TYSL0hZSg9IWSluJ9Q6csEAkTW+Uv9pTR17Sz3EGS6YXAhBECKIZ+1MswCIgiOrmi6R3yjn55CX9HEYIRRjWsv8tFBYhUsQzNoROlLwOcvP2KSMXouc0ikA1mdINoIiPS0CRAGvmJgRTwLDwAIiFzlS8nJNP7ic6YTqKTUv0sexhM3oEjaeaBNIFbTw+6XlSC2Kh29cQOolYsLnojAaXL6+j7BIy8juuZ1B2iWY94DM7uqmrOiXRY66zkN5Ii+T89Brz/rqcXIgWQmZUTqIDFLv8gPWFEgA7m6ayr7BM5Ss5RSMkQoGWTDYn6PKW4hDihw1GrD5WyJCh5mR2TsGz0dpGaZfG9H6O2N30iYBRbXqcGSiXdV26/TwsTIjS35QJfac1MGcGuRCdMBq0JNYulmzyyysnOHtFARXOOkq6AAjVYp9f5OvbBQXt8xvntyi7XQjVQkY+sduLUO2RjXTgpztq/GRigI3VmGvWtNDSRSjztxOhWkxHLb70kItPLwCW9BdY8c3vy3rYrFfKe6TZ5EJ0oiTqTqw8wrDGp1/fy1V9XkcPlVY4CzBm6qHA4oZPbmV50eHLN51PhbhjfzHzAaW2tju2jfD2b0/wt9f084YLjHCY68/1AQ3j8huf2c39rdUMSh8lw4UJkRboDuetQ4gSekG92+lKblg4UYTGU43EsQndyRgm9d0obaO0lRikXcChLiwa2AyLfiNWWhIAqCJKg9IuaAelLfM9cET2MREZoVEaUBYR7owNrKT/gVVWHSXNWGpBiAhfT3KGPUqjuS8XoCchF6IFMEZoxjgZMVI0ZmxtTKUuEtFjN3EARNP0FTI1V0cgTMSBBYSewwonpFxQQMOYswFbzdxQVtbnxFaEp5rIp2WdS4UjVdlMAOsaOcbfvelM3veybqL6nuSQzuu2j1/M5EK0AMqyQqwKBKqZfOMmall7M6JjqnhZxzSw2R2ZaOyAIjYtE8KjJUqbiAS0k5wHB0Mn+VRsV1g5a0t6iIK0KUctQsqJOnd8RFJl1/ZUE60Fe6dD3n3VWl7sRtx04XK++OaNXNTXBKGTeUupSvl0hPX0JBeiZ51n8BUEc8dKx4OZg5Sol6KEAH5/xThXrO8FFGjNRVWbD716Gc8vTmFpgadaxvDwtHq805Nn8A3mdBIlm3pGtZ3jq7Dx0x67WIBCJ/6qyeYEr71kDWUA7YAWWIQM0OCDrx3ggn6fkLIxncxQZxcnuRA9A1jhnKAb7GwUBDHRnIg3e7btLGnR09i4pyt8aR9Ut2eav48HqaTpWQAlNOuK45w9aGbPRsI8l9JFIooMejF/dGUvU0zMuMZiJheiY5GpKengefZmcAiJHZcpbar/7E0JiJJZP3VhxKaKQzOp+FEiakq0j1UIpIAD48YwYeYTmekP5phZmxCZNa8cdQp0ag7veO6nUL+arSbXP38JFcCjkc1XauNyUdXmLy4vErSaxKowa39K573Tv6cnuZ/oGEglCXHaTsu08iVxaTqxhAHYsc1Sa4wzK3N7pJRpyyLSS9g2YaZtv6RnlFhETFsWJT2NL7roitsVdtqy+OmIS4F+SkxwYbWGpe3snNm4dHHPQUHBS/u4jteqZWati4XGSkOMRDSjHY1VgengCP/5xgEurs4VjpgIS9kgNMNC8I4v7OPhRjeRbFsNzbR0ZvWz+rhV0V9EciGaQ1ociml/lIJq0JTt6QidLFFTNCprEVGJ6eAI5XhizrFHqLDCEkRBjb6uLuq2i4hKDDUnWRpNAVCQfnZeLDwsHRALj55il/H3iIhoej975YA5x575ygrK9Fhu6UxCHBrNfe2d0azKm5zbV+gGIJBuVvGlclilx/jUb61g0JurFkaZihrjY/GVbSP86Xd9KoUkSqLDMZsS4nBQOayQIZZM+8vTi1yIZiGVRElFH3v42xsvoFpUlPVslcaoZlNYfOibO7ltXxf/eLnD9c83FXM2vZ5mIhBs2efzjq+PsKns8Nc3LqO/fGxtuhXbfOr27Xxy/wB/9ALJTZeamLxjsWta81u3DlMZbfFnb1rKi5YWMvVxPu7aOsEHfjTNEm8JLTukHLUIRInnl2p87o2r8bJoipkYQYqJ0ezyJdffvBW7a1XWW0stUDJOzOZk85uqOATHaIx+0Tn2W1ykxIkfZH1vkct7BJvcFis9d862yW3xYrfFxcsdlkZTvPjMMoOeZNCzZm6uQ4/yGPQsNqzpplCcom5NcHa1wErPZZUnGfSayfEkf2M2lDQvvWg5fdYUgz0NBj2X1a7LoOvMvYdncUWfxxo5BsDLV3sMug6bbItNjpy5uXU2uS3OPUNkBhFbWUmQKTglJ5mGPg+JIS5GY2mLNSXJuWtWEasSUhmVcWfTZ9e0RkQlRFSim1666SUQT94I/CKTC9EM0nGCIQ3JsYmzWaXZ7FJdIMBUvCN22gOJjinbMvG7CGIZATFlHdMMuyjHvUSA1CC0Dbo7CRFyCbAAN8uhMBp3JzkWWmgRgVCgrDlbC5NjYcTqp5Za+IQxOsQizjalK4BLmPQKSsbG16PtWUP/+RUUQWSMIVrgaHjzhjq/u3GYt7+gzt9fHvCtX3P50qskf/TiCX71eUdYIncxxQSenjuF43QhF6IZCEAihDaDeABpKqSFjaWt7C9CtZUdlY4fOtQfIUAIvORcE81gxi+PCkkhqeRSxERCZCE95grtLD5AMikvuYey5kYsyPadXfsIfZRBxEiRmtLtbDOYa8eOuWZsGeFU2iX0QzT2/IYAaa7lJZ+lgBvOX8O7rlzL779oOded28+Vg1VuWN/LTRcu54MvW8X3fudC/utNq3jH5TZ97AF0YohIhPc0IBeip6QdEkPiM8n+zoNEI4+9O6Pd383f4j894hmjl7kjmSenM0ddLYSF9hlR5ufS2MSsKUlefW4/n3rzefzyygmiRoRUznxi+gtJLkTPNE8iYCeKSd54MhGAwCHkkVqDx8eaJyCKbaQ2vZS5rsbTmgoNNrl13nbNmsQMz2mj4uVCdFw884JxssQidtw57tGnRJvKDtBV6uN724efdsREJ1lPrCXotjDGlNj84BE81ULJ+ISiK56L5EKU0enNP74aJI/vsKdAZAI1U7Dm9gQW6hhvbOax5r/5Y9rmqpoKhJk+YSyTNndtG2F6znFPA63NlowLTe/sssuX3HZ/6itSWPHJakpOLdaSa9/zF7O/XDy0HaupSmMm2zVZ0u2y9qwuGoGg5msmAsVRBWOhTjbBeKT5z/uPcKiueH6/ptxV7Ng/d3vgqM8djwVssqbZsGEpodLZtScCOKpgItSMhZJhrdi8o8kPDrW4oM+hf8BlIrDmXDPdtvtw1yMTTPohl55bJU6uN/u4mh9zVFn8dGiKe/ZO4doV6noKZRdxlIUWsK9hsUSNsm51FZn4hY4hvfMjFAiJ0knQj4AQyUd+PMk9oz3EQiZarzgZ2u8pJ3e2AiSrL5jMocbLntKY3p9ZsWZj6QDb6sFxKoRhrWNeURtPmvlGljYtcKGrD1tZNIMgO96TJsQmiiez82yrJ0tuUmu2gz3T681Hl7cUwERDUCNOUmjNx6j2WFcsoklm1AJhWMMOD3PBYJk/eEEXL1q7DI8IK5vmfnyk5vt01m+Ey53bRnj7d8apFJa15zppE0L0i86iFqJmEBDFk2zymmAncW+RqVBNZ/7og04KoQnbaTrdMz6n+2ZfoxBOgd2irm3Kcbtl7zxn9nexmsyObTrdFKQNwfj81+7gqfan1C3Fxp5u1qxawuqemEs2VFnmWlRIc38ro0hqax5V8BhobXojYmq43LVzgj+/7QmapU1I0aKgfeq2e9os/bJohagZBFy9dJo3//I6NvQIZgekpGGcNlHiN2nHJdMRR5ZWg/T72dXCTpyT6Uig85xO5js/nnWf2feajTXrGee7T+cxqZndBkICurBMr6Ms00Nkc4Xmu9KTYZ5gGItb7x/lH+4zufCUdrFEq+O6xyuVz20WrRB5qsF/vKWPVZ7EwgcclC4mTk/dMTBPe4zZA/WYiCIx4M1N4juLeJYYzCa9nwXo5GjTkqfnxMlzGNVqPjGSs4TnWNl+Or7T0lRoLUGExEgibKwOI4fKzNXHzxjwg50TfGrzTh6pV+gqDiRqm0mgkiWqFOlY9BebRSREpoppbSOA55dq3PKG1VmkgKlIyQtNLEupmffJKtFTVbKn2j+bTtOyFO1nSfc91bWO55g5zPq9HOM3p8GnAD4mOYpNRB2bYV+xvxHy6K4x7t4e8aMxZaLQM6HVbYFJ0o3N+O4XmEUtRF9842qz+lz6Uk8HU9FJxSiCAS6f2LyHR4/ENOwyoR/yk7omCjSeLFDwjm3QOB15GnbLnBzT3u71FZ/7+Sj3jvfz86NFHm6UKMsyPcUuepyOMKlFwqIWomfGWbqYsPFx+a9tw4zLbpQM0UnvrrUxf5g5Q4urR1+0QlSbHp9X7895MmKmgLu3R1QKywA5I9uP1gKp5FPmcTjdWERCZEEyHjI5AvqpYQa5kQTE/A7MRYsiGQO1jClcAbR4aF+DH42pxGEqkqgDlW1KqtPCgfp0WDRCNHvuypGgxXjQAmFMyhASH2tG52JEJhbLNBur0PgUueXevfQUe0zDk8Ubdm6Lj0UjRPMxUlcgwswIa3wzOYaGsVZqkZnAfzIa8N2D5rss2mCR9TrzsUiFyJhiD4x1qnAFI0Z5nciISIREKMaAz9w9TlepLzEmLN6eZzaLVIgM+yeNIie1CZJEy9zYkJHMSxJNoMX9+xr8+z4SY0LS0nTMQ1rMLBohEun6OukKCm6Bhw+1E3rYRMRp9ELOjNAinyIfvn0HZxaLZpyU9kHi9Ig4WCiLRohmYl78Y8M+tTQBCCoLNM0BtJPknivyHw9O8Hg0YL5Pe6F8LJSxSIXIVIJd02GSTwDoyIWTAyoJdN3hK96/+QieW2ircTkzWLxClKTSvW/vOECS5y1X51KkaOHj8i/f20FXqS/JO56Xz3wsYiEyreqD+yWCKA1PnXXM4uYr20b4yhNG9Z2bpD4nZRELkeGOJybZ5ctkTtAiHSQrk+21MzLhvjHFP925l65SX3JQx8oYOTNY1EIUSJeuUh8/2j0KQLyIeyKbCDuZXDiMy83fOcBEqT+JTMCocvmqePOyiIVIJOqJxY+21RjDXbQRC0qARQg0qUn4+zt281/jDmVZxo0ctLYTYVqc5fNULGIhMmgtuPNQzIOjwaItDiUAXHwqfP7+Ub6+q4Rnl7MxkKVFkmp4cZbPU7GIS0Vn1qau4gC3/eQgwSI1cts08LH43JZDfOz7+3GcShIbF6NkiBIaqZKVLnLmkJdKIk7f2z7G1jET4pINsolOw1i6NBdcks9Ba8DiPx6c4AN3T0FllTksMSKYaSK5Gvdk5EKUjI7GZTc3f+cAQRozdpoS4ULH0i2REHzi/inetrlJsbCaIKqbtFZgHNDKAsSinCd0vCx6IUpDKLtKfXzrsM0t20bwiLCpEWEjT0uLnZlsNy3gY5v38OF7IgYLPZAsCwl5WM/TYRELkTA/X6gknMWip9DLB+48yC5fAoUkivn0UmVsrQHJGEX+8quP8omHixTcApZsYkmfQJrUwjnHzyIWIjqcqyYVlE5W4P7Trx1gGBePVrbs4+lCJAT3jUW8/Qv7+M/hKiXH5H41CxVLYuUleRNyUTpeFrcQzfDAm3kyIQ7fGHX44Fcfxcc1+aizzqhhBub6uVjBYpTuXIEvNtPdtc6evwbcfP8ob/jsdh72K5ScIkrGyMSErbXEIcz9QU+TRZS88fiQydKLteZhbjxL857rNzKAsWKl84009nPSGN6ZWxtiAiw8GsQ4/Hws4h/uGOHhRucq3nLxhjo9g+RCNIcYkEa9qe3ngsEy//DKNSzzXDxlHJOhAOdE0vWedIzBgGQV8hh4ZKzJZ348yW27mkmCkTgJJk0EKEvpm3Oi5EI0g6QotER2qHoXcpC3vuZMXtjnUaEGqmJ2PJeUYa1BmHV/argM+4p//dk+tj6q2dyoMFgqom2/vcixbtsd83lCCyMXojnorIVOBSnEodHcx+su9LjxvAHOqxbMMvTPIXxgCtgxqfmPOx/jm/tbuKUzadkhQVSnLLuJVQFLmkVetBbZomZK5mOghZAL0RziLHI5VXsiqXAjJxOmG8/SvO4lg5xdLVDKxiCtTEVS2kri0ZJ9qSEiWXmhrQbGSXxa8jddAaLj+HTVOcD4rJLFs8AlSoRndDLiW4+P8KUtwwzVyhS7VuEQMsVEti6QQ0jLDo3zNBGevCd6ZsiF6ATQWlBvDLPJa3LVBT1csqKbcwar9EKSl4DMbA7uDKGKScZTs0o93Z9+Nss1pmMcE21OspLSSNBi9+FpfnpwirsenOSRoIBt9eC5ZtlKkqDRvIc5NeRCdILEysMhRMmQad/MR3rFcosL1y5hVVWyslpgXbVAGRLVL07aftUhFDOumPVIMRqNjQ8M+4oDIxNMhpKHjige3lXn3uEmsePiyULm51GdvYnoWC4m56STC9GJosUx3ZFBq5ktdrypUqSvx6HbFfR2G3Fa1RVTLrR7iWYY4U8EjIheJqbMmGWqpTkw3mDXdEgsPDxZyHqadCwTC90e18zJwpOqijknm1yIThBPNSCZHZuOm8pRe9lJ8z1mheyEZstkFjoYa1Aug6UiQ36DwVIx6dVi0JJmq0khVc2EypyfnjLXD2QBUEQyHbeBVI4RJKGJpFEpT5eFhZ/r5EJ0wqRjH1NRjf/FyhLnzxisd5jLNSCESsJs2tjKQio5Uy1LSL+xZqx1irEiJmTnCp0ZR3IhOjU8JzwdWosZ27PJ7Gc59vPMHNekFVYIPdfalVbubJ9JCN+5kZqaO47tPEcIjZJJsKyWyZYmnJ89VaF9zWeFjueasZ2mPPtCpAUiaVPT7dks8NnP8uw9Sc4vCs++EM3H7JY8J+c5zHNDiGarMM9iT4RQyZY+T+5ryXlyTq1hoUM4JpsTWNqYc2MxN4hm5lLuZhwxF51YrmRH+P4zEZkcU1d1XlwW7KjbiTWMLFGHMQ6cumKbTTMICJSx9Flhi9hJk/KbcgMoOcUOI0QaaBq1x3GzjR0cjwaQGlNmlzcdZR6zxvYBGG7ZBLI4y+jRgRYgFJONWvZVT9HMsJ1Leu9O5hn36cQ/lv6+2fc8CZxaISImViVKTPD+68psGigDUNYxdWEKxIkEe0YD7t3X4DNbpynLJNhzXlIhmqcwn4rEz2MqT2pGNnNqfD3Jra9dytnVAo+PNXnNV49QlmXQdhZPd3zRAGnRHkOoZ7zoWQ3FMXrjyIp49XqLmy4tZWVW1u0KNlJXbN/X5Btbp/jGSJk1FY0V21hatMN+MNfvDLKdWcnTMKRZzzCPVdAQJ6uHw6VLDvOPr91Ir4a/vutRvvLEUmJVwpL+nPektcDXk3z0lyosW9PLz+9/go8/3DvnuOTo5L7pO2eG+yAl1i6W9NHaRiWfn5mG9diccnWuxATXPK/Fq1ZX2GRbnO1aLPNcnudYbHJjNpQ0L1/t8v6XVLj1tUtxpp9Aa0GsvI5KadBaEqsSUskZ2xyS842lLcZTDep6EitzmIrkxSmEiFgjx9hULVAh5sJqgXPcdD+0bBOTNn/LmApDp1DM9/KS/anqmFQM43tKIhuO0YI2p0d564sqrPIkG13NJtdi0IsZ9CwGPbi4qvmNC7r45zeu5u0bJ9lbM4GmDnXcyKGuatRVjciKTDosaX5PXU8mwiCIVWleq6RUFrEqzCjrzKSPMd1fsqFCIYnzu+T5A3iqhUM4M5NqsgmhePmSkF9Z38t5Ltx42VnUVb3zlgYtkIkLwDxDiVh1zotqY4kWdVVHiAiHMPOtmTJu33t2XVoI89S4k4UmViUmQ0m/8JPc12AT45EGZcbJzFGJheLiaoH/+dYXUG8MI8XcXNlCKLTtM8VEtrVsMx1g5oHmOCEitLbx6aVAvzEZky6dmKBt9heWJiKTrFgUjJvn1y4iKlGgf95WUGvTk6Um6M5KdszjEGgtkcrBpxepnOR3xon61XEeUFANVpYkFiLL2BpQJMIiwiWiiKUtqkT86XVn8jurYpSMGSMkxKEsuynLSpbZFG3TTS/d9KK1jRAaS/rzqqstO5xT3kZdlCA0k40ay2VIiRi0oNiA0eYUcXItrQVoG51tkoZdxqNBiRZlQDfnWcVdqKzxmmICbfvoRGWcTedThzgEotTxTtr3nl2XFsIpFCLDwVijnZJJ3SRjhrH4yB1b+ONvbufDm4e5a1QyLESy+FaLF/QIfn2DQ0HPLTSpLPbWRFYJCvRzqDWfTm0qWyRNSM5Qc5Kh5iR1VcPTfkdxmjk2gy0zVkPZJJ+yaxxUDkO+iVaYDyE0nvbxtM94MD7vq0pbbU/7eKqBEIpYaMKwhh82OqrC/K/HLHKiAYvNQ2P83fce5X9871G+sG2E3b4iEgK0RZUWv/lL3Uz7I5RED5YMkpbcI8RBAJ722dk0m0iiHbKVwWcholJW3gX6GVMrTFJH1KzGIvGZadNQWloQRHXzDkWUlYnS6VjOBZ1kGcL0PJ1oLTnU6qFAP930srcmENH8PVHqiE57QA0UkveRqqNpqNQzhbXk2vf8xewvTw4CZbVYIWNeMhBwyeoqoKkjec83D7CjOcgD4y7f+NkTuEGTS9b24lDHQeFWK9zywBFcx4yhQNMMWiz3avzmhQXO6TnE4NKYQqPB6PRIx3HmWK0tUAWioMHFvS1esTHi6v4p1pUtxv2Ig40Azy4CAiEUZdHkzS9YYiKtBdyytcVkXETKgJf0H+a6c6bZMiVwouTFawEIas0J1ngNLlsZsX6F4rxlILE5MBFi23Yy6AVEzFI5yXXnlulxNE8cPsBVawv8txVj9MqA7WM+rl1Bajm7PqHDCX73smUUiQDN5gMN/vWhLh4a7eeLjzf43n2Pc8nGKn0lBxsoFzWP75vg3voAS5kkkgIpYvzGIVYVWlxxtuLq/ikuWiEJjhxhf1PiyV5EssyXTmIBbRuuXTXKZYMhG85o0qdGGR87hPC6AAtLS7SGXx6MOXtpD0JohibrfH/IJaCM5R/g2rUx63oiHhyuUbEl40GNc0oBv3puH5EwqvV3txxgUnaZgtcSBAgRU/af4Oq1DpcsO8JFKzWemGDnWAgKbMtO1F/BUmucV5wtWFMM2XJwilBNc92ZmvUrFMtdwaO1On7QoOC0I94Xyik3LGht847zjnLTZWdB0qqe9dHHEYUCJWF6kbi+h//5mrN5+eqQgAp14Nc/s5sjcRWEJgp38cFXrOOq9b20zQ4xNSzu2jnBP909ztGoDyWNTrxT9bO8uY2bX72ayweryTQDc1YN+Nq2Ef78O+OMu+tYbU+yxvb51m+tzqZar/v8QcSkxWUrNB969TIGgPvGmvz65/fSVVpKrDws6XPjWUe46epzSBcjSdky1uSP/+MQh6JlSNFid6PB519d4jWrS9Sw+fmew7xs7bKkh4Fv75zgvbcNYZXXttWqZPxWnzrCQ+9eQ7f2kAL+97YR3n6nxZll0/rXmhNcucrjs68+AwtBhMXtD+3l/ff2gNDZYP5//0oX5w9WqXY8pw987p4n+MCPFZWuARzq+PRy3erD/Ml1Z1JMItKNKm6xwxf88+Yhvr2/iqUF48E4f/NLJd5ybj8Qc/eeEd7wDdOXf+K6Hm5Yb4TjfXdP8U9bmvzzNRZvObcfpc2Ue09BIOFw0OItXzjAoWgZYVjj1Wsn+K1XrGeTa35jlMzTeqQV85H/3MP94yXqtsve6TC7ZgR8/I4tXHHp87iwWshyYgxjEvZv3lcwqh4gRGR6fW3U0qfL/PrCSaSzK50vRa8AyqWlbH1iGCjgaKgA67sVUgum/SN88BXr+JX1vVRoJdUOoEWFBq9c38uf/doKas3DoI15er0c4Ytv3sgVgxVsGkjRzoxTocXrz+3nL69ZwpLWro4BcJvBVsDZdoP3X9/PgAK0ptTlIAqmNWs09/HbG6b471efw4BKFlFOclzbNLioavMvrx+k4D+SvDBYW3ZBmyUuL197BmiNTQOPGlet72Vd0URyHC8iKdueYoUf7KuxP1CgJTbQ09Nlgl+1IK7v4Qu/sZrLBqtUaeADY5j1iUq0eNtlZ/G31/RTax6mx25ycf8kf3HdmQwQm6nxQIALymJDKeBPrjuTQTWEkgpPFljiOdkcKC1cyvEEv3dxN1es70VpmxoWMZMsnYwY6LeAGClaRjBlC5uIbs9l5ZIi08ERbljn877rN7LRbWctsolBa852Lf7mxrPYUI7YWxMsjaZY22VlCVt++7oLOa9aSHLtxUCNARr8xXVnsqEcZWPO+d7502GBpz8z9BW6Z/wfyAIPjwRJyltTGc8Y6GNn0+fXNzi8fH0vHmZcssMXfP2hvezwPWIcbFq8tM/inRe4Saui+O2LPF6wpIBFSESR+8ZCbtu6l92+Ikbi0eBXz+3nxavnL45VUcB7X7ucTW4SRS0E/3bnzmTKtccmr8kbrlxLmYhAwn1jEX9yywN88mcTjFHEImRDSXHTpb0ArLAEfZYNQiQReIqhVshQYOFTYX8rZldDzzBBHw9mAC+Ihcfuw9Nmliww2FshUE2arSav3Fjh8h6RTB60+Mq2Ed7171v4/r4GaAebmFdd0MulfUV2RxbXbLSy3n73ZIk/ueUBPvb9RxmWoHSRAVq86oX9TDYmO5+EKBkTndfr87svqVKlhhQxw77i69tGqQxUuG8nDAUxPq4RTGCXL/nevho/HGlxRnyUt12zhioNLGBMwh3bRtg8NElNCGwiBqjx/7xqFRsaY2BrhG4lDViLdNT09ScmuW8sJKIChFRo8dqX9TDtj2JpMSP6/kSYv9Y86wgsnWaLbrM0muLa85ZRogFYDAXwjs89zLu+7/Ham3/Oz8ciUC4WIS89fxmTjUmm/VFevL6UqG8uW8aavO2z2/jLexze8X8eYHvLVLQKsKpgZVMLOnn95X28oA/QBSIJn/7pGF/b05s5X5+/yqMPCLB5ohXz/33lcb5bW8+7f+jxrQcniCgCIRdvXMlkY5ooTiucaXl9XG76/EPc8MmtvPubw7z7f23D7lpDmKb0fVrEmcMVTK+ZEqgmv3puDzERMZrNQ9P8+XfGeejoAH986yMMtULQkhLw0nNKRIGmq2Ic3hEWd+yc5OYjK/j8Dx1u/ekYUrSIkYyGZr7TbLwo4gOve3Gm3u6e1PzV5x8nsM6gZYd8cWuRj3ztYUhMETVcXveRzbznjgnKspurN1ZZ61qASw2bv7t7iLd/Z5w33zrK5+8fzVbx2NQjOP95XZlmYIhpAZ/YvIf33jbEGz67nfuG6kCFSTRXrK5QSKazjGEsuvMoRsfFsyhEbREZbU5BopLMj0XJURSkz8oBFwgJcLn9oVH2WisZsfqYclbx/YcOE0mIKJpZpfEEm7wmZ1cLKA0+Fl/+8RBh1zp8etlcX8Xn75nCp0gNeHTv3CdQGq4716NHeSCa/GjPYd5zTwvHqeBpnzCscfnzBrBpUdBw5NAkmw9OsrPps1Qe5WeP7MLYFS1KXQ4byoqCahA5MiuDh4bqbPX7iUsbuPtggb1yELQkDNue/OMhffo0miECECGyoLA9gaUDLhmsEmFjEXL71hGIBI/6HtvHfbbs84mEwAbOXmra8elaElUC3PTCHu76tW6uudDiY/ft4V13HOCP79jHzfdNUXKKHIw1ThBm1rkXrV/GmpKpYmNU+LMv7eRWfymyZCOiElK0qNllCtqkN9YETPacS0n00AxaXDPYZczlWO0erLCMYtcqbt1S43DQAlWhCpy/PGC46aK6l2Su2gO+4sMPCQ4VzsXuGuRffrqfMaBHuwzQ4kWDAyfYUM3kFAuR7Hjotle6oBrIks2+uGxcYsrDLnXhESO1aaHGJyZZV+xhmWsRUMGjxc93p95oKHguP959KPE+mZ7lwv4qq6pl44fS0AQePjyVZfpcVyzyiUe6uOiTD7Dyo4fZa3UbH0Jgxkxg8hzElEC28CmydnmVjeqAcerZLgdjTY/Tjpp46Zoq0391GVPvXMaj7zybf3z9C6gYzZ9lycC4bhm1LqKIBTw27ePJQnuqQ7K1w54MlhZga5xkwrkP+H7Eui5NZEV42jfRATqgq7uESXNi1CTdbNJX6KaU5HhAFfnA9RvZ9e4zGf3vVUb/6gpeub4XO8mc6qgGNWcl/+vHB9hHHUeDpWwuXVPiA9edyc9+/wXcsKnI1LTKwrdQ5l5Ku9iApS08Ymxa9BBx6UVL6bOmUL5xhMZWxIQ8w2gJoonAI3YChNDEToBf8bI0zjt2j7I3XAHAGj3BvdNFRuoKpHnjSytG6MV0HZsWAUV27B5lqeey2p4GLTg0GiR9DoBLt2uanXJi0JrPN3Y8nGIhmkucVCrlz3QsPn+pk1VMG5iaVjQdTSGtBJkQCpa7k0hlsaS8NPkmXQ0cYpG8BtmgABCZF+1QZ40aZ4UMCawzkqOTgvTaAh5hpS5XChoGPYvfvXwFuxpGFVhhpe2/RqJRwqh1xq6XEmMRMjkZsWs6zFSf1GJUr7fv92SkTstm0iiUqNHjFplsTCOiEj5GOAvONKurhcwZu/vwNAADbtTh9zLXCLApJb1WnQAwEQM/OACD0udn02v43X8b4+6xAF+a8aBHgwoNrhhcxt/ceBavWRHPCINqO85N+cVILHxec0mV81xNWVZo2SFu5OA0Uv9fZ4+giQJND07SEMSEcYOl0RRKaI4K6BMB01M+cUcVXhoZjQbipI5AU5SyWciHGiHNoAWiCcSUGmNJ2mSeVA96Kp5VIZLCFHXakq2y6vh6ksb0fq7bWDHFJyMiYOdU+1GlNi+nu8tEBIRuwFASBhISYKEIgNr0OIcm04K1sIBK1xLj/JMue60eztQ7+LfXDHDHG5fw/KKfvXyTfcd8PhCY1bS1iIAW157dz5VekyCqm6ne5gwQIfft3M/7b3mAP/zqdt73ze2855YHeOtXd/I7XznIlZ/eTaWwLFO3Oil4cyMgjpcubylNRrJ1ha5es9KkPk4amsfGA0ShwKMt86xSG4vUR7+1hT/86nZu+s97eMe/b+F3vraPt371EC/8yIN8+mdHadkha9gHQcy7P/UjfvPf7uHT949mRhwpYga05qZXbpxlWIgATSAEPxwao44NOAzQ4I2X9dIMghnvDEB1RIBEUjGqO3vhmJ6eLgrSR2pBIAvYnmCwt4KVVH7fj8DW6C7jI1QCnEoXuxsNAlEi1i5LKlUKnjtDC/LDRmb6P1GeVSFS2iQcPEKFKg5Bq4nnj/PeK/pY02N6lAibn+xrsKMu2VGXDE9GmS3/2vOWUW8Mo/yISniAKzf2YdIqxpmFqyn6qGEWt7KAl220GQ/G0dpmslHjppf0clWf4qo+xUvPLlNXdZqq3SvawEe+9jCf/O5QUhkszuyxeeNlvfT6I6BcDkzIbPGsvhUr+NZhix+PreG2A2u4+cgKvGIvv3fNSt57ZZXxYNxcN5zHgvEUpO6BtLrFif1pyG9QoJ9djQZn6h38vy9fknjAjMr3w13mPN1sstdX2Vt3B1Zz56EC3x5eyU9Hz+Sxx+Clm6rc/Acv5BXLLezY5n2vWMGXb1rLx/7wKn42dgbv+WHI9Tdv5V/vGcLHAtGkUpLYngDZIvScJLpDsddXvOsLW/jJvkbWL197QS9n28P0+oIVsq1cSRFjA73+SGbcefxQgyj5tecMVllXNNPjPdXk6mqDFT02KGPS3josO2YDGCF54eoiV3pHAAjDGi9aLykmJvoaFo9M1pNcFiemxqU8q0IkBQxQ45+vsfjzy0I+/NKAL755I793SacLEL5yz0GWeEtY4i3hoaGDxCJGEPHS1UX+4BIPPR3w+nVNrr2gF08BWBwYblG3etnbKLFrrImtNTY1fv1Fy3nF8ib1qSO863zNFeevAVUkokjgm4pXCNPey7Sp25v93HKwhweGxkyoitZce0Evy7s1TqHC5u2jmfrYV5K88cWraUzvZ6g5yVvOEvz99QNcXNVcdV4v5bg9BWQhmBW/fV6ytouPXDrOH51/kC+9ssCnfut5rPRcYkoEWDy0cz+PjGg8u4xt9fDIwRpB4jZ4xTlLOM+dZNjvot4Y5mNvqPKWc6u82IUzVkdYR0d4XleJCjUu7wl575VVllKjqUo8MZo4ILRRTT1/PFNtzR7JgZEJjnSfxafvPsoYFqgiVVq87orlPNoUSYR16i+M8Yh40cpeVsYt1pU8vvnQrkz9HKDBu165gXpjmAE9wpuuXpvl+KsBe/Y36ClWkFPjxEhioAr8ybWrWKPGuXrpNH9w6XIq1LCJ2N+KOTR17IxNT4dTK0RaYskmyi61lymhzFvO7eeG89dww/lruLgqsYmxsNHYfHvnBHceiomFRsmYT/30CNtbxr/iKXjnZYNsffcG/vL6jVSJQLao4fKVew7SU+zBLtr8+9ZmEjdVYkDBP792I9//w0HeceVaqjRAxowCtz2hKdBP2aub16OKZswWjbKu5PDFn4wzLYzFq0qL1102yGp7mjsPxcl6rxY9RLzzJVW+fEORb98AH7p+gAoRAUUeGa4TlJZgWz3GOqe16Vcsza5pkbSIyWvVs/ISJDkWAPa3jMEFHFb02Nx02Vm87bKzuGF9F4OeMdMLbTMBfOaBgECUshzc33xglAkAQjaUAj701nP50qsk3/md9Vw52AXEBMDRfTaTZcVj036We/xNL+zj39+0hs++po/3Xb/ROD3FFA/taxA5yzLVNs4UYcOOus0Pdk4kTs0mrz63P+khLA41Rk2ZYp757288i1tvWs5X31zh0JRIejEAi/+2usjP33k2X77pfK7q80CZpJjf2DbCI0GLuprCL7lobDzMMODKNUv48k1r+dCNZ7HSc4ESFjZ3bZ1gXHYjhEZrs6zOiXJqhUiYJBujodGpkxHRrINco08DX9g2wjtuP0JXcYCC9pHKYsvoBj5+51GGsUE2skGu8R3Z1HD59OY93LlPmQoR1fk/W47wxQenqGGDjPCoMejF2InDtobF39+xm8nItKr1oGxaQGl6pnIsAYs79yl+sq+ROAabrKx00QwCKoVlfPSre9jhG8Gv0OLS9X28bG01eS6j2nzs27vw7DIHY81wKLIE9GNBKiwzVbwnfa3SlJ1pjZOVHpRRN2sSHgtjPnDLA6YckvlSnlvgW4dt/uXHY/iJC3WT2+KG9SU2lAIgpobLLdtG+K9xh67SUr78g0M8EhmRqNDg4qrmysEuqrSAFmNU+PTdR3GcCn0iYDwI8WgkuVoNTVHiU9/Zi0lxaWyL3UtLoAVDfon9LfNbJJoqNSrU6HMtllSqfPj2Hdw3pghwKRFTTSJToIUv4e6xgA/ceZBiYTXDTZdiI1V3FXUCAiGoaE2FVrJKus19Y01u3VIzTv4FjIVSTmEAKonQSO4dGqFUiJgONHsmGxyeVOycnGbPZIM9kw1+NBTy8R8M8a8PaXoL/SgBsRQIbTHilnngqM/RvcN0L+uhVCrQwqGGw89GAz54+xN84QnHBKG6kliFdLlVPrujiatalMsWVrGcnfPtfQ0+fucebn9Co0tdIEMerPdwwaqQvp4Km3dO8G+PQckq4bldbHt8Fy86/wyUVeTzP9jFoxMFsEqMUObWe7dRqjiUu7oQjtG797Ykdz5c5/dufZx6YTW2siiqmF67xfNWd7G3FfOJ7x7BscvtWajZlgUdZHRbkl17D9HTZbFnssWeycBstQZ7ag0ePBrwxa3DfOp7QzzcWkPBqaBFjKdaaFxcp8CP99bYOTTaUX4WNRweG4v5+F37+OS9PoVSDwfCClKWuXfrNiKvQLmrm8hxaWGx3xc8cDjmo/93L98bEbh2maLjEE+PsGFDPyOxyy0/OcL+Rg9Ke+xvxSz1GqxetoTHWvDZ/9pN7Fap2Ob3bNhQRdmSOh6HfIdbfzTEz0YKHHGWsGXrHupaUe4v41kmLHm/L/jcfXv569v3Y5XXYqMYi0LetDFmba8Jiv3c5oe5b9Sh6wwPy3I4Emhu3z7Gx781zkFRIRYu+hjl/HQ45QGoBmlMjceg5BQJcbBkM2udpXJQUtEo+Dgtj0OtHsJmzViPEupWLz3FHrQWKO1SYoIxQjMNQAtqzcOZl7opixAJYselp9CL1CILWA0pm2OdaSK1ckbmUSVDnOk9AEyU+s1YI1GVpLLwwwZ2eDiJsjbHDDddBgs9SNFK1AbNLj9gjXMQANdabxI3ZlPdjSqn5/FdSCUZUiX649FMfTqnoBkjpIrDZChxnAoHlcMqq57M7mxSV1PGH5JYotKA0XJslLumLBILr6MsYmJV4KByGJRmqkSfCNrjuUhwxO5moGDeY1lWkErih40sIqOr1J8EdZp36Kkmyje/OexaC1hEMqYctbLvx6UJAesrdBPIQpafL2pERPEkBdUw7w6wrR5GrD5WW3UaxTrx2DSfev0ZvHxplRj49P2jvOf7go3szq59hAqOewarrPrMqfMkmtIJcEqFSCqZVdRAFjp0UQ1JRs8UO5nFCKBkmE0/LmjfTF4TLZrFOsWmUQtMhVN4qkkgXTM70/azZUXQkjiZv2Iqc2RmxYoWlhaEOJnPwEyjZsZ+hzqToaTkFPHDRmIqTSp9cm1LtBKV1eQOSH9TthKDUEhloWSYPR/AoVYPVXnQPCc8qRChBc1Wk9gJssZhignKskIkjfrq2e2pICIqYckATzXaWVkxSSaFUEa4kvJp389E2/t6Es8u40amAUsTVGbMU+5oOwnsNBMPhYhmZGo1n00jWvBspHIYUiVW21N4qklIOZvG3l6QzDJ+uI57KxkTSYWISjQZQZZsDh0tcMdvlrmqz6i1H7xniC895GbPpdP+PXkmSJ8rLY8TE4VTOiYy2T1l9jLbDy0gSThoNgCFEjpxMFqIJIFhIEzFFkLhtNq+hPRaaVpfS7SwlWVyI2BaGUu0OnoDiSWNd1wl+1TyOS3Y9D5KKgLpUvBcVBZJYJ4ZTGIMKVrtqd4ifV1W0ku1swYZ44BEJs9nK4vVVj15zrYax3xJIBMKboGyLCOSMk17ASu2KcvKjHJMfUcm2YrMXnl67UxwZ9zPNG6mlzUVFtJy6UCYOUdo2b5+OtOVtFLKpAzMZoRQJGVoEpgMSh8w/h8lVVZm5m+n4Jg6kRpY0t9XlmWKTS+LXjAYjWMyNDNaSX+zSBu2zueap7F6GpxSIeqsXFllmRfLbPNVpFlZRNPvkg8zKrah414zrtdxfzErZVfy4tL7GGZfdybtY2f/rvS7zn2zWr2Oez4lnc+YfTYVbE5ZpcfAPM9wrO/S79Osrmn5iXmeMSmPGb999vWO9X2yr0Mo2vvnOz75POP3pL/PPOcKSzDqB4BFQJGR0cSp3VFOZPVmvnucGKdWiHJyTiIFz+P/3jPCt46Mcdu+GvcNu+2FAU4ip3RMlJNzsmkGAVE8SSw8lnhLktx7J7eK5z1RzmmF41QodPVRKfQS4hBbJo7vZJILUc5phTEoGcOI+Tz7iGeeXIhyTi8yI0f6+amMWAsnF6KcnAWSC1FOzgLJhSgnZ4HkQpSTs0ByIcrJWSC5EOXkLJBciHJyFkguRDk5CyQXopycBZILUU7OAvn/AeSCBs8DstGWAAAAAElFTkSuQmCC;" parent="1" vertex="1">
          <mxGeometry x="1500" y="175.89999999999998" width="76.28" height="50" as="geometry" />
        </mxCell>
        <mxCell id="YXAz1OWxP_jkYVnMhaAE-15" style="edgeStyle=orthogonalEdgeStyle;rounded=0;orthogonalLoop=1;jettySize=auto;html=1;" parent="1" source="YXAz1OWxP_jkYVnMhaAE-8" target="YXAz1OWxP_jkYVnMhaAE-9" edge="1">
          <mxGeometry relative="1" as="geometry" />
        </mxCell>
        <mxCell id="YXAz1OWxP_jkYVnMhaAE-8" value="" style="outlineConnect=0;dashed=0;verticalLabelPosition=bottom;verticalAlign=top;align=center;html=1;shape=mxgraph.aws3.codebuild;fillColor=#759C3E;gradientColor=none;" parent="1" vertex="1">
          <mxGeometry x="1630" y="175.89999999999998" width="50" height="50" as="geometry" />
        </mxCell>
        <mxCell id="YXAz1OWxP_jkYVnMhaAE-16" style="edgeStyle=orthogonalEdgeStyle;rounded=0;orthogonalLoop=1;jettySize=auto;html=1;entryX=1;entryY=0.5;entryDx=0;entryDy=0;exitX=0.25;exitY=1;exitDx=0;exitDy=0;" parent="1" source="YXAz1OWxP_jkYVnMhaAE-9" target="YXAz1OWxP_jkYVnMhaAE-10" edge="1">
          <mxGeometry relative="1" as="geometry" />
        </mxCell>
        <mxCell id="YXAz1OWxP_jkYVnMhaAE-9" value="" style="shape=image;verticalLabelPosition=bottom;labelBackgroundColor=default;verticalAlign=top;aspect=fixed;imageAspect=0;image=data:image/png,iVBORw0KGgoAAAANSUhEUgAAAKcAAABBCAYAAAC0C7RzAAAAAXNSR0IArs4c6QAAAARnQU1BAACxjwv8YQUAAAAJcEhZcwAADsMAAA7DAcdvqGQAABc7SURBVHhe7Z17kFzVfec/5z76dt/unpdGI/RCGjECyYAr2IQFBUMsOYI1KxPvYrBZr9ksIfGW4015d2vXcVwVx5X4kWStTQhVjo28a0MUCI+KIOEhCML2LlIwskDIjCQk9JiRRpr3TN9+3sfJH+fenu6eHmn0HDm+n6pTo7nPc+79nt/5/X7n3JFYNk+T2uee4+TiX0ILPGJi5hopQBCgCZkBQEgPKdSOuMRlrkotWv2vMTGXDlVxSmEgJHGJy5yWpuKMibnUqBNnoBm1v8bEzBkSbUqchUBQcN36I2Ji5pCqOG1NktEbwqWYmDkk9jljLkkEQSzOmEuXWJwxlyynFWdjBj8ucbnQRRCQFfL04oyJmStOK86ZsvcxMRea04qzlligMReTMxInDZY0LnG5ECWiKs7aJXMxMZcCZ2w5Y2IuFhdFnI2pgsYSE9OMpuI8X4KRAhABgoAW4XN9crKutAgfQRCLNKYpYnlHixS/87cMLrqmcV+dc3o2RAlVgAdW63zlhg6idU/DwPseHcT2a1Qpm/aVmF80xGmS8OcqzIhszYUSQDosiXh1XsxpmFGcsx1mHV/i+EqAji/Jaj4IZS2lMJjAAsDL+3Xnmab6KdGUxYytZkwDVUU0+4ZoNmR0Aa6PU/LA9RkoSCQaTsmjUChRKI3j5Iu8Wyzz5OGT1fL0/hGCQnHW94n5xaPqc57pd+uBZlBwXW5fWOI/Xb8AHHXusQo8t+8Yn7x6AVnNgIzBsVGvfhuQCzzu/8dxMpbdcOUpHF+C65NJqT4k0WIx/yJwOp9ztqzutNnQZbJhRYoNK1L8q8Umy+yAe3uyaluXyZ1XpLiurWbbihTre7LV4X9GvCJf+IDJUrMM4QLU2bobMT//zFqcM4kiUXCq/67U7Tk1jZ8rRdeP0kpOucB9ywVfu6GDTRsumxJoaDlnqs+lyqVY34tdpzO936zEKQW0CBXoOL5UQ3ogQE9QsdVfDIkIDFWDWqGeKE25C9H2ShgQIQKymk9R96uVFwTgS357zWUAXJc1+O7HF7LAGSbQjHP7SlQEOOUCTrlAwagP0s4nUVscX+KUC+r5zTXhs67lTAUzW6L35GBWA+YorThbZuVzRvnKpWaZcS8BQJtRYV+Q4CqtwtqsQzmpYZUC3i0n6Ksk+JX5BaySqky0bW12ysqOJBI8dkRndUavXgdg3EuQk4KlZpmt9y6hs3oGbD6Q4/5XRrGTbTPW9XR8MDXJ1z+6lB8dKvJHPz0TW3+GiACnVGLTuja62y3+/T+Mkwv0xqMuKlLA5WaRq5d0cOiky85Jl7QhLpgf7/iSNe2wqNPm6aMOQVmb3UeUoc85K3FmNZ8BV+ML12r8/g0dFMPtfTmP7+14jz/4tStJhdv25zz+4rWj/OltK6rn9+U8nuid5L/e0FG3rfbcInCk6HPzI/2gp7k1k+OZe7ohzI8CDLiw/m9+hmm0AtDrKCuQtqK/9xQe2AQp1P7fWBbwJx+ez66cx5pHjpOx0+fVegip7lXUfRYE8PpnuugEPvncBFsG3Nm9nAvIui6Djy5NszdXZmNv8YLWx/ElX1idYlXW4qWxCs8fmmV25kwCopMa4PokCg5poDMslyUN5plJOmuS6wAZzaseEx1nFoenbbNKQfXcTmCRMd2yRMIEmGfCjs9czY/vXcLWe5fw2qcWs/GWLlqET947dauFDKP/WnRxXoVJwzB5UpvuW19SuBfO1Wh8rmk/OO07aqTpkrnownU3MPVp/iWAFKXGTbMmk22eRrJNk0HfZLJhe+0MU2foi352VYo7Vk4d07Tuc0g02XA+Odu2Teucp+Fs70PoX9Za5fHimXeEU1pOQRgA5cvg5xkdK7BnImDPRMCunMcbYy4nS3bdtt6TRfpdm105r7r9jTGXoyVj2rYjZY9dOVWibUiNgjOBO+rw6uGTjVWaxq6cx/cOqsmAQDMQBOqnBKfisDRRxKk4OBUHXB8zqH9BUqhzAPLSJO9J8qWCKkWPvGyurrw0kcJQx5edaiG00snAYsEM/n+tAXAKeRxf1hkGKVCBRFhvp1yozsQ5mKptqHpF+7OamghxCvm6c2oFVjeEG2XQSuq46Pk0QQo1zBKJu0n6TwoVAEXXCTSjbtraD/IQ3r+2g2Q1v9qmQDPqngu1AVHThR8ErJufYEXnlOprU0dSlBAyWf1Zu22m/Y3nNtvW3tHOisuS3NRl1gVEjQy48BtPH+KHxXnYmkSTFbJCMlAq8vmVNh9/fyvLWxKcKHn0FyU73h6jXBjlzzasUj7n5gHSSVsNN36+7pyRQsChkTL/cMTn+/vHsFMtCDnlk0cB4n3XtHJLt/K4zUBj91Cex98cYuuggdaS5Minm/icYbC0fp7LFz+8hGFf8MmtY6R85dbkyw73LdO547oFLEkJLksaHJ6ssHn/OA+/XSSTyKiX7BWrAdfnXhzkIwstPv7+VpIJZXP6i5KHtvXzQydLxpAgtTqf84XDY9ywsI3udptk4DJUMTgw6vD6cJmcFDjSIoOL40vuXGhy3aIsj79znL5KFGFMIQXcdblFZyrF5v0jAOQCnQeuTLIy7fHiMdjSP859K+fR3T41Yu6ZLKngLC9IC+UDRV9fnlKc+bLDxlu6+Oyq6ZW5EFQafMzGbfkwcHJd2HYkxw92DrOzpFwNiYYgYIEzzNc/0cNtXWbTaw3liizOpqritFMttFLmr+9o46Z5jWeoc548kOOBHUVSvk6LUMHhrZkcX//oUq7LTk9r5YE/fn2UZ35ykpd+azULTbj98UP8pNxBwXW5ojTEAx9awm++P0saOAJ8fHM/fa5FQZd898YUd/Vkp9UfYPtIhQceO8jB5Hw0K+DAPV0sNOFY2K5Gto9UWPvEmJplqxHnWOhvtps6RTnVhpTwGPA1Hn/nOL3FJJnQL/+tlUlWZS2e68s3Deyyms/vXtNKu6nzv98+QZ9rgdR44Ep13t7iJAuMNC16iUk/SdKwSAnV2Qd8ja3vjfLamHLpIiOjt6Wsr4gbPkE+21V3MwAXk9svT3B9Z/Oh7XxTGw5VgMhe66GV/I9/f4An3prgoR+f4P8e9RghjeMJEkIDAflynr+6bTEblliUgBcHXTa9PsozB47hZ1voSeu0W6otJyoBm3ZXsHR48t+0ctO8BPlQiE/tPsmrhyewsimW2zrXdlh02wFPHvKQmkaPVeLRTy1jlaUxDPzdgRyPvDXJtqEyHS0ml1saHS0m3zos+C/XpMnq8MTeMfaOudzaVuKhu7r59ctTJEK35H8+e5h/ctJUikUevjXLvT1ZfOC594r8zVsDPHeoQklqLGk3WWHrLF3exhO9o1ymm9x/rbp+i2VW6//IW5O8dLjAkB/w//c5bB+FhCkAwYq0xsrWBGgJvMBn2/EiW48Os3NwklxFsqTFpl3z6chk2T4wRkUYuG6em7psOi2Ddydd9jkBCW1KnFKAJSQ3diVJ6Rq7xwQjrg8IPjjPoNMy6DQt0BK8Merx6jGXHSeG2TfpYSdTLLckV3VkGHJcRiseWU25Dqdd+NFiNE8vXWgSNQXg2UMjvHTCYmexhZPpLtDTBCJR7dlCwn3LdG5boazHn756lLufHODBIxaPHW/n7qdH+fK2IZT3ExKU+fIHEtw0L8Ew8N9e7Of+fxznL4+keehwmrVPDfDnu3MArO/JcmsmRz6f57/f0MqysMN8+vFD3L91jAffE2x8O+DmLaN86fVRfu+5PoJClHSDNk9j49r5PHpPN9dlDfLAd/aP8MBfv8NrjkqN3bm8lbt6slSAr716lLtfHuSbB20e3Bdw9wtD/PHro+SB27pMPr/SZqA0df1h4FNbDnD/K6M8+J7g/xyF+18u8K3DWnVtQiPPHM6x5WiJ3mKSo26KLX2TPLJvgqI0uDItWTM/tMRns2Ks5pzI59zWP8H33x1hX96jt5hkd07yv3b3sz+vhH7LYuW35kLH85R3zeiCPaNznwsZcOHbbxTJWHbVaVbJY6+60t4pF7hj5TwS4VD2zXcAu40MLhKNdMrgwXcLvDI41Z6eoMC6ZSoB9uTeIt8/4mOnWiC0BhnL5os7RtkzoVJe/3p1J1fIvFoXAGz8f0P80MmSTqdJG4K0IUj5OhvfDvihk2V1Zmos+NodC/jsqhSdwJ6JgH/3+CF+d1uBQ/YyNePl+nzsSo0EsH8iYMdJn1tbA9a0w+oWl1vn+Ty7d4A3j+ZJAB+6uq16bYCtB3K8dMLCTrZhmyaBSGDbSWzTRKKppYk1jAcBr41BJmlUh+hMMsnO0Un6CmrMWtleHxOcCwO+xpb+cexkm3q2hiQrJBnLZvvxMVLCY0HSYHVGr9Z1RnEGmgEioHe40LjrovPgrlF6x4OmkSKhvwnQ2arE8MKew6TTaSXMGtdIs1PsfGeg+rsUkmyrOvf5PQPYSfXCBUrwEg2CJLuHVM+fb0OiPUsq9CtfHig3nWFJGwK7IYfU6A/2D5fAqN/W3a7Wvna3ajx1TzfP3NPN8/+2kx33LuGZe7rZ+Zmr+ZXLVWdakqr3+V46OEQmmUQLPISsL82YKBTBm7K8tQwXp7ZndNF05Vjtcz0dupbm0FgBpBbWb2oRukTjteE8Y65Pu6ljm9lq9mRGcYIyzS/0+wzMofF8dtBl4648dkYNfY1INKRoEpSUCtUHGO0PCsW6XK2oecILswmE9NDk1JRmi/AhUAtOIlxvIkziQJfuVtccRA9UCiN0kepFsX2kwldePcowcE2rxtc/0QN+Xq1RQOWRh8NPVsww8JtsUobD0l+s7xGjubMcfmuEJtGmdZgITau3oo0dMqIaXDUxJJlklMWZ2iYIyCQylDSTMdfH0tVIx6nEWZ3KDJK80de8h11oduU8/vDpXjKWreoj1XrOxqIFHviSQ2NKSLdfs5weN68sYLhfCgM8wYYrlDh7TxY5oNnkJtRDvOWKVvL5fF1+DgBD8uFlahgfKoDMaUyGEwE3LtAZcDUcaeFIi7w0q38hOi9N9gWJahL+G9v6+eY78OUX+8kDG7pMNq3tgMK4EqhXJDepJjT2TwTc/u3dLP3OEZY9OsiyRwdZv7mfX32ol9u/vZv1m/u5+++Oo9lTQkrZ81ROWlOdo7ZEz2mmJHztszwdbSkdvOI0gbUZFUqaauzxonoPji8ZLauLdlgCp9x8FF6aKNKmKSmWfZXH5XQzRACZlMbDPx2oDyQuAsPAV148ys/MRadehSTUcJ9Op3n8zSEqwAfnJfjNWxbjFAOVmPYlBWeCb9zczgfnJagAP+oToFls3jcOwJ09WT6/OlUXZNi5ETat7WChqerzfO8wB/UOth5QQdLv/OrlrG+dhFIR/AqUiqxOTPKNX7a4s0tWF7NEpNNpvn9Y8vBPy1SAe3uybFw7H8oTZCybH+wcJh9a1v+wRq0rCMoaQVmjNye5uSfL+g8sobeYBD1dl+QvFkampXfOB5EWDoyq/HZ3u93UKl7ZlmWhHpASHotSyj1BT7BnWPmvyzJp1nSm60YZAKdU4vbl7STkBCXNZOekW73+zKkkoYpA0uv4XN9ucVX7xUkpDbjwwN8f4LVcG5YmEfJUXbpaUfbmAla2afxSh8WNCyzWdSdY3abxkcUGX7qpjbu6bXTg8QM5vvpPY9jpDD/un2TdcpsVts6t3WnWL7e5Ii24ZaHB/7hlIesWJakA39udY9PBEhkryZv9x7hpRQdXWBofe18713forNAnuOuaDr568zw+sshicYfGC7v6+PT1C7CBLYc1DuUDTNPk+aPjtCU0blxgcX2niedMsG3E5Eje4Ko2ybVh/X+9p4UrLIOPLLT40poM//nadm5cnOLZvaMMewZZXVZTSY+9M0afm0CK6esThFQvuyJhVVZnZWuC4YrPjsEiCcNUAhQgRICpabyv1WCpbdBX8OifrFABPLfAVR0p5huClW0WnutyyA9YYZT55Xk2N12m0kgAO4ddhl2JJTxGXB8tqXNVSrCsxcSUEs8tUAp02owKdyxvZ1VbhrwveGl/PyN+EoTEEqeZIarlcrPID+5YxDVhAHGh2D5S4XMvDqokbvj15qTUZzXkBJpBoTjJpnVtTZPYFeDF94rc/fIgmUSmui5VM0o8tr69aeI+Dzy8O8cXd6ileoVAkMFlaWLm5zGMGr4fGUrUzRC9PKRcpRbhM+CU+Nvb57NhRYphYP3mfnorLVAZY9PaDu7sUQn6WqIJgftfGSWTyJDVfLZ9pouFwD3P9fPWcOKUy/KimZ7qqqS3R6sZEMLhGeC3r+rgyrTkteESW/sKTEqdvDRZ01LhY8uzJA31bsaDgGTgVhP5CTmBrqX5zt48+wr1o0Z0zcgnHQ8C2jSNlPAoSoNt/RNs6ZskY9nVNaczWk4hqzYJBEwEJnsOD7LuqnayM7f/rKkA391b5N4XTjLs2ySEhhSCcuh5zGbAkkLDNC2e2j/Bm4M5AiGYdDyOefDmiQpf3V7gj94cCR9AQEVCQgSYUmPznjEGRnLIlhSjJZ/+os+Pjxf46ivH+Kv9LgtTSVwZYAqJEAHHKybffXuYyUkXW4djHvQXfZ4+UOBPXj3OlhMaac3isqRgIICn3hllIlAjjyUkjpHhiXdHWNGqs2sw4NH9BTKGTsIwePq4y08PDSANE0eKal3+cMcQ33qzRDqZRoiAitTp0nxGhcaDb3mU0Zs+p8gyWkKQ1X0WtNkMOC4HHQ0ZrtUVqA8ThRS0aR6ZTJKfDOToK6vAseL7jHqCiWKZlqSF1KFN03DQOJYvse3gMVLp+VR0jVeP5SgJC4EfBjeCnSMFfC+gPZMAv0JGNxkPAgaK8Mx7OX4y7lWteAVObTmFVJZIBROqAY4nTjltdzbkgVcGXR7+UR8vlzLqjyyEUWe1R8/CahIeXz02nL/Gl6TTafL5PGgWmZRGVshqopeaiL/6X924YZRu2XWpolpfvKir3h2UtfqUTLNo1yuqSLUhmpZCTRHjCexMa12EX11e5udZndHpzUkwUlOTDmGqK++pOfYo3VNbx4haH4+wvdXsQtT5w9s5mOBX0KwA29Prn2m0v1Qkk9Io6BLbF0g0irqP7enqK1xTV9OQYVAdXSNaD7AwZXFSQx3vq//FJav56p3Img4zW3FS00inXOAbN3Zw9+osC8/SDR0I58ejRRLptBrEZivEZpzpi6nbFraX2kxFuOgVYFLWDxdVcdSsWrI1dWw09KsDw3s1SfNEL6G2M0bXjdJfQnq0CJ8JrKnrhvU6qanVT0Kq1VPR4pdTEbUnF+g4mNVccPTco3c+7VnU1C/q3AVdKoFhkhYuIlxonS8qgTYGaNF96n7WvIvoPcxanFO/e3UXcjzB1e5xru/uqFs909Ig1mihRrQyaPvhHD87Os7WUR2kRjppN63g2dBMnM1oFCfhfVtE2HsvFDMI9HwQ5VabtW0mmnXUqI7NxHkmnGm7at/5NHGe6jONxhtNsxqFcTAkmp3iQ6ZKOrlmFtNVKZdB36SvksIp5MGQkGgHUL0tmolp4GwE2ljPmZj2Qi4W5yjOmZ5J7TXOtW3Ru4gs90yaOFuatbdRmITtODtx1gz5dX5pY6JXD2NfXw010VrGSNi2JqfNpDRjppfSSGM9LzWataNZnaOhrZFm5zPDNc6Vme51rjSrazNxtgi/icmqQdYk5EXNLELtcF8bMCHU0vyo2Jqs/reFkSNP2CsyuGjhPGttifbXlmYNakbjtS610ozGY6LjGrfNdD4zHHuu5ULReJ/Gewk5Zf1nFGckuKhcSIKab9GFnBpaIhobEPOLwYzijImZa34uxDnbYT3mXxYzijMaXqNSixZ4dcFT7bHn+zh5DqmlmJ9vZhQnDc7r6bhQx83m2Jh/mVTF2bhkLh5KY+aaGS1nbLFi5poZxRkTM9fMKM54WI+Za2YUZzysx8w1VXE2/lGFmJi5ZkbLGRMz18TijLlkicUZc8nyz5ip46/4YxMaAAAAAElFTkSuQmCC;" parent="1" vertex="1">
          <mxGeometry x="1740" y="185.89999999999998" width="77.08" height="30" as="geometry" />
        </mxCell>
        <mxCell id="YXAz1OWxP_jkYVnMhaAE-20" style="edgeStyle=orthogonalEdgeStyle;rounded=0;orthogonalLoop=1;jettySize=auto;html=1;" parent="1" source="YXAz1OWxP_jkYVnMhaAE-10" target="YXAz1OWxP_jkYVnMhaAE-19" edge="1">
          <mxGeometry relative="1" as="geometry" />
        </mxCell>
        <mxCell id="YXAz1OWxP_jkYVnMhaAE-10" value="" style="shape=image;verticalLabelPosition=bottom;labelBackgroundColor=default;verticalAlign=top;aspect=fixed;imageAspect=0;image=data:image/png,iVBORw0KGgoAAAANSUhEUgAAARQAAABnCAYAAADBsb2iAAAAAXNSR0IArs4c6QAAAARnQU1BAACxjwv8YQUAAAAJcEhZcwAADsMAAA7DAcdvqGQAACoOSURBVHhe7Z19fBTVvf8/uzPZ3exTEgIJBCKPKSgIBWwEqTxV5EauD62Cjb0W9YW3QuUqxd5arT8vLy5cf7X80GIpVW58lpciv1tLQYWK0J8gDwImQCUEYjAkkCeW7PNsZnZ/f5yZ2TOT2c1u2ADB83699pXdOWfOObuZ85nv+Z7vOWMKhUIxMBgMRgYw6w8wGAxGd2GCwmAwMgYTFAaDkTGYoDAYjIzBBIXBYGQMJigMBiNjMEFhMBgZgwkKg8HIGExQGAxGxmCCwmAwMgYTFAaDkTGYoDAYjIzBBIXBYGSMb4GgROENReANRTodJy8Gg5EpTFfr9gW1bV5s2ObDvuoOnAtJiJotKLJKmD6Gw10zcjAs360/hcFgXCRXnaAcqm/HCxs92HjUCqfdAjvHozkiAjEeTl4kn31BPFwawYOz3Rg/NEc21BRr5VtgtDEYPcRVIyifHj2LV7cJ2HjUigKXnYiIOYSHr5cwpC8RibrWKF75kkOB1QUAaBZ8ePi7EiUsYILCYFwEvV5QNu+rxysfSth+joeTzwYAuM0+LJ1jw79M7QN3Ni/nJFZIbZsff/60Hf+1066W4Y+FcFexiH+/Nwfjh+apxxkMRnr0SkHxix349OA5LPszcOyCHU6OHB/quIClt9owZ1oBnLx8UIUe1gBN4Qje/msL/vB3Cd4osVj8EjCr0IeHyzjMmNgfTj6LDYUYjDToVYLiFzvw8YHzeP3jELY3ueDk4iIwf3Y2Zn03j7JIFGgh6Dyr0xSOYNOuC1i1wwxvgFN9LsbCwkSFwUhGrxAUv9iBtz8+jf/+uwlH2q2AKRuI8ZjV34OHyzjcfuNAqrN3r+NLkoQ/72/Ff/0lgtM+O+wcj6AkYqjjAn51lxOzv9eHWSwMRhdc0YJS2+bFezs9WLaDA6LZKLAQ62FuiQ8P3mrFjDEDUurg3lAE7myL/jAFXUYUmz5vUa0gpc7RuUH88hYzNZy6OAFjMK5GriBBiXfq2jYv/vxpO57+1ASnKZsMQwQf5n5HxJIf5lBTvcnxix04FfAhDAtsiKC/1Y5Cm60LESIC4Rc7cOB4K17+q4A/n3YBMR4wEWF5aHqW7PC1GA6jjMtlMK5+rihBqW3zY83/nMe6L+IzNv4Ymfp9YE4uJhS7dJaBgrYDK0LiRRYsMMUTojHYzB0Y7nCl5Rc5/LUHq/+nHR/WutShkD8WwrMzJcybnodh+U7dGV2XyWBcjVxmQSGicPjrdrz6sRevfMnByWfDLwEwh/Cb75tw7y1ujOjnoM4hw5L4+ziSJKG1owMnhA4iJNEYYKYEhWKIlYeD52RhSY3DX3tIO49wKODlWBbRhxUzYrhjWq7cTiYmjG8vl0FQ4laBcuffWBOfsYEQwYrbRLmDuqj8ya2JpnAY54QgwtGshCKiEo1/5SHZWfIwKFWiONkSwB8+aMO6PVbAaiFtj4XwyHgRP78zX243yUtI3G4G42rikguKxjdxgkS1BiURboeEn39PwL/epUzTQicmMOyYipAYDW8SCosiKHK61r+SDG07VKfxdg4wEadxUBJRPsZvENbfue0MxtXGJRMUJRhNiWotsLpUIVk6M0o5OVPD0E+STESM0AlLPzGKgpzstPwrkGeR1m49i4o9Lggih6AkAgDKhtGzUUirTAajN3JJBOXw1x48+3o7Pm9VhgLAYFcQv77DYhDfoWDc8RQ/SZ0gIgLSdI2gIC4Q3WWIlU/BWtEThV+U8MYnbVi1JQxvlDhwm0Uf5g4X8fyi/t0ok8HoXfS4oGzeV495f+LJgj0BuGuIB/dMy8bdkwupXPSdO/FdXPWTwIIIYrDApP7ttphQ/hT1XPkY8a9YErYnjrbNfrEDW3Y1Y9W2MI54c8lBcwh7nnCkPOXNYPRGelBQojhU78OUFT4UO5yQOi7ghZ/oQ9mRko+h0/Am3aFNutDiFI1htMuW1myQgiIsD/zfGBDNxujcILY8208WKST9zgxGb6RHr+gXNnrUrQI2/jIPt9840EBM6L9a/GIHKtvP43AgjDAo/4peTKKxuAjQFkd3ocs3m3Aq4ENTOAy/2EHn6hInn4V7fzAAWxdyQCyEYxfseHVLkz4bg3HVYNyTM8Cheh821hDH6+O3hjGhWNlvBHK1iauWJAlN4TCO+eJCog5tjDCb4iKgF5vuQpUThgV1gohjvjAq289TwqL3+xhhxowxA/CbaSY4OWDZDg5+UdJnYjCuChL36ouk5oQfTg7Is5pw6wRHip2P+EmO+ttxQujQdGqNnyQdK0SxXtI5JxFmE7zIUi2WdH6+e29xwy+GgGg2aur9aZ3LYPQWeuyq3vt1B+wcj1zeQ0W6Jq5OGd7UCSLxlUTjwpFyfElXdFdUKFGyROMWi9ZaSU7/PBuuzxGAGI/9/2jTJzMYVwWJe/hFEcVfqsi7KSX0ytzO+MUOMrwJCCTK1UhAaCHoSkwSiQY9LMoE0RjCsOBwQD8MMsbJZ2HSULKv7e5q/Z4tDMbVQeKefhHUtvnRGCFRo98fnS0Pd/RVRdEUDuNUwIc6gQSCKbMqqhVCv5T0VKCHOWYTIvqq08WoLTKKxXLMF+7ScTu6mKT9o4VLmo/B6K1cbFcz5NjJdrLITwxh3Ah7p2qawmFUtl9QhzdKgJpGSC6SiJm8AOB0QwQ1DUI8UW/1dAe6jXJZdYJI+Vf0RFF6XT4A4JjXhHMeozwMRu+mRwSlqpYUW2QR0T8vvv+I4ic5IXSQ4U1UN3OTASGBLCYKa/47iId/H8LDv4vg1XfPo8OiTc8o8jDohEC+p/bhYmYM7++A2yEBEnDgZIBKYzCuDnqka33wZRh2jsec60xw8lnwixIq288TP4kSTyKLh2qdZAhaLD7b48emE1YUO5wozsvG63uzUPe1QEQsQ+JFl0PX7UUWvgoL2Nful4c3UbizLSjNC6LA6kJtHZs6Zlx9ZFxQatu8aAtxaBaAUUOtAICAKGHSkUZs8/gQ4ojjNQIyvLGAvDKJUt7petpPEYXTbkH9af0jSTMANUxTBNJkMeHT80FMP3QEAVFSf+pxJSY0R0T8T1WU+VEYVx0ZF5TTZwNo7HDByYuY/B0iKAorz7Th9uP1OBUR1XU4mYYWJ4eLR4EVGqewO5/y2WQQJfDOZDHhVERE2bFzWOEJAFnxBZEAMGlUHzg54JjHJAtNavE5DEZvIOOCsq+aWABuh4SiAcoMD4G3EQftwuoGPF/bAomLR8H2BH1zTWhWfbFR+MUQcpwZsoZkR2wEMbX9X0U6sLGhFYtPexL+tNcOzyIBbqZs7K9sSZiPcfG8+OKLeOihh3D33XejpqZGn3zFsHbt2l7RzlTI+NVcWRNDgYXH5EJQi+AUogCi4G12fCzFUPZlDd5paYXJQqyVTAmLUk7xYAtgkqekYUZRjgWDB+rb1E3McQtL4ix4v6UNC6sbUHFBEVDyXbVEUWizocgiEivljD6997B582YsXrwYmzdv1iddEpT6d+7cqU9SqaysxIYNG7B161YEg0F98hXDmTNnekU7UyGjguINRbDfQ3Zgu3ZAh6Z4Yp0okI7E2+youBBF2bFz2N0ahMSRbQkuVlgUv0xRHzsQC6ntyIdPnzV9oqR9EcQgcRbs9Phx+/EGVFwQqe+oX/yo5Y6x5O+eIzFKeHqPuDQ0NGDevHlYv3495s2bh4aGBn2WHoWuv6ysLGH9FkuGbh6MlDG+4rvJqXMBNPrJkGfKWLcmTQwnU14zVngCKDtwCKcixKLotqhQMSZZ2SIgP5FUEE34TqELJksaQx65LEVAIpQj+VRERNmXNVh5Rh9G37UwfH802Yh7+zkeTeGI/G/I6L+iR2ltbU36uaepr6/XfO7td/WriYxexZ+fEOA0ZcMfC+Ga/oogGFVhdCwK3tUPC6sb8GJtK05FyI5s3bZYZFEp4ohABSURAZ4Ek6U1qyQLCOTzvop04J2WViysbgBvs8tWiVEksP5znHEj7ICZ+FH+cdKjT77iGTNmDAoKCgAAEydOxKhRo/RZepTx48djyJAhAIDS0lJcc801+iyMy0Tiq74b1NSH4ZeA0e4YhuW7U7pbE+JDBMW/srC6Ae+3tMFkkTu0bCnETzEQGSXSFkQIaPKs8YenR2CwAtmoPNlPogxv3j3nw8Kjx6nhDT1Uod8n/1n759kw2h0DYjy+alDamepvdfnhOA4nTpxAVVUVPvnkE1it2tm8nsZqtWLfvn2oqqrCtm3bLnn9jMQkv/LT5C9VQIGFx83DlaCtRD6UrlH8K7MO1pH4lSyLoWVhaMHIYnK6IYLGSHwhXv1ZEyLtHJmylkPz6aEMbRHRQrIz4EfZlzX4Y0sbeFeh/L2MrBJQx4wEgqQ5eQ43DY6iwApsl2fFjMu6crFarSgpKblsndntdl/W+hnGZOwqPtniQ6PfiqAkYub1cWtAIbEPJfldnbfZ1fiVryIdJHSeEgBQQxiNQAB47z2y/aRiPRzzmrDlUw86LCTwTPGn0EMa+nUqIuL24/VYWdumG96Aai/d7kTvFeLnjhpqRXNERP1ZkxyiT1s4DEbvJGN7ym7eV495r5FZlSPLc6iHXZHFgEO+OAle3fXd6C6e6K6v7cCzORP+eVAuRjizEIvEYLKYkBUBEI2h5mwE9acjaL0QQ22LiGOnnVS5pAy3xYdpYzn0zTXBnZ+Fa69xICtbG2gncRa8WHcCH10wJZm5oduqT4sjhoOou2EE9Uxlkufw1x7c9L8DAAdq82oYlqHQ0NCAQ4cOAQBuvfVW9e7c0NCADz74AF988QWamppgs9kwcuRI3HHHHZg0aZKuFLIj3tatW7Ft2zbU1tYCAAoLC3HDDTfgzjvvxMCBA/WndIKeLr799ts1aQp79+5FS0sLXC4Xpk+frh6vqanB9u3b8cknnyAsL6QcNmwYpk2bhltvvRVut9ahr0cQBGzbtg0A4HK5cPPNN4PjOt/EHnnkEbz++uuA3JZx48bps6h4vV7s2rULkMsfN24cSkpK1PTKykp88803AIBRo0Zp0pKRyu/01FNPYfXq1YCunXv37sWOHTtw8OBBhMNh2Gw2TJw4ETNnzjT8v6ZCT5RJkzFBWbqhEW/stsLtkFC5Ik+zqXNTOIwRRxt1HS/R3VjfofTnmCGGg3gitz9Gmk04XCmgpjqC7ed4wJQNp3xdEZ+JUR1mCCIJfwcAxEIYnRfDtLEchg234Jwd+OP5MAQ7HaKvCIGRiCSDtNVIULyhCMb/qhGNER5vzc+SnwJgJKhxdu7cibKyMoC68FauXInly5frs6oMGTIEf/vb31SR2Lx5M+bNm6fPpmHJkiVYuXKl/rCG7Gzy7GkA8Pv9hh168eLFWL9+PQoKCnD69Gl4vV48+OCD2Lp1qz6rhlWrVmHRokX6wyperxeFheSpCQUFBThx4oTh0CdVQfF6vZg6dSqqq6sBAAsWLMCaNWs0eejfuav20dC/UygU0qQp0IJSVVUFu92OOXPmqO0xYuTIkdi4cWPKwlZZWYkf//jHqKur0yepTJw4Ea+++mrKZRqR+OpNiyhqqiPwS8Cs4WE4+cSdOf0q6XPMsPns6FPVH++8GcWStcAbu6047nOj2GFHsZ1DnpVDntWUoH4AiMLKSyi2m8jL4YQ34sIbu634jzdMeOfNKKxHbbA1WmEN6nenp4Wwq+9ilBY/5s62YHQfwMln47NjoS7FRM8333yDxYsXqxf5yJEjUV5ejvLycnUGBADq6urw3e9+F4IgoKKiQiMmM2fOxPz583HbbbepxwBg9erVXQqKgtOpf1B8HJdLfv5zczP27t2LqVOnqmIyZMgQlJeXY/78+Zg5c6bmvKVLl2Lt2rWaY4nIy8vTH0qb8vLypGICAA5H/Pnath58vlJlZSVGjBihtqe0tBQLFizAggULMHHiRDVfdXU1xo4di8rKSupsYzZv3oxJkyZpxKS8vBxLlizR/O8PHjyYcpmJSP0KTkJtmx/HzgNODhg/MO5kPFTfjuc2nUbFpx6qcybq6Ikg+W0+O9z73XB/ZIbjFA9O5JFnNcniQXfu7pQfVcviRB6OUzzydjng2G2FrVG589FCkh7nhCA276vH5n31mgWB08eQu/rumvRXHj/66KNYv349SktLUVVVhS+//BIVFRWoqKjAV199hQ8//FDN6/f7cd999+HnP/85IN9hm5qasGXLFqxbtw6bNm1CU1MTlixZop6zfPnyhAFj3eHee+9FdXU1ysvLUVVVhaNHj6KiogLr1q3Dli1bcObMGcyfP1/Nv3TpUrS16WN8Ms9DDz2EHTt2AHInMxKTS8n9998PyFbimTNnsGvXLqxZswZr1qzBZ599hqqqKo0A33LLLRAEaq8fHZWVlZqbyHPPPQe/34+KigqsXLkSmzZtwpkzZ7BgwQI1z6RJk+D1etXP6ZB+7zBAWRDol6BuInT4aw+mrPBh1adOrPvIjj7/Lwc2n36zJUUI6Bc0omAN2uDe70beXy1wnDKDE3nd3Vz/FfTl0eXq0xNB6re2ZiFvlwN9trtga1RMV71g6euhy47CeT4PP1opYt5rdsx7zY6ZT3+jisr4UTz8EnCkxY7aNr+m1K5obm5GaWkptm3bZmiiTp8+He+99576WbEM3nzzTSxatKiTn8LtdmPlypWai/Xjjz/W5LkYmpubMX/+fFRUVKCkpKTTECk/Px/r1q1DaWmpeuyDDz7Q5Mk0Dz30EDZs2ADIYlJRUaHPcll45plnsHLlSuTnk75EU1JSgi1btqi/k9/vx7p16/TZVJSbCOT//WOPPWb4269Zswbl5eXqsZdeekmTJ1WS9aqUURYEFrklDO9PTMOPD3nh5LORZ+Vg5SUIzVEM3tYhi0oy854Sk9M2DPkwBscpfUfV5ksXQew8/dwZYrkAUVhbObh3ZyHnCwuswfiGUcmJwuZzwr07C5zIo9jOodhuwhFvLg4cJ5GlE4fnk6UBFgnHTrar56XKsmXLDH0HCtOmTdMMSSZOnIh77rlHk0fPI488or4/fPiwJu1iWbFihf5QJ5544gn1/WeffaZJyySLFy9WxeS2227DH//4R32Wy8bPfvYz/aFO/P73v1ffP/nkk5o0hb179+LgwYOA/B27+t//+te/Vt//6U9/6paVkqhXpwjpcP84Tfy6UwqDcGfzAMwYmkvuvgQzrHwM3ogL9r2c3Cm1ZWgxw73fjT577PBGHF00M35uXCiikHi9UzWOlae3DdALlTGcyMNe48SQD2OytaJvM00UlqAL7o/M4ET6UaZmIBaPi3FnW3B9jgAnn63uckdIVjbB6XRiwoQJ+sMa3G43pk6dqn6+7777NOlG0FGnygxQJliwYIHhHVcPHXV76tQpTVqmeOqpp7B+/XpA9lG88847SYX5UpLq7zRu3Dg1Whny0EbP22+/rb5/4IEHNGlGDBs2TPXTNDc3o6kp/YfSdd2TkmJGUziCjad4IMbjusHxO//0KfmYW+JDfYCOBI3C2poFx27F4alYKvFmWIM29NnuguOUMrRJhnJuFKHCIKRrffBMC6Dtzg6Er4/JAqMtQ+Ij8EwLwTMthPM3hREYLgJ96J35jX4S5VgU3ogDebuy4T5O73NC10HEJHeLCWJYe5EKogmz+nswY0z8uc53ftcGvwTsq05vs6Xrrruu07DFiJyc+APWrrvuOk2aEXZ7PADR709vGJaMa6+9Vn/IELp+SUrft9QVK1euVGdUZs6cic2bN18xYgJ5WUGq/OQnP1HfG217oIgmZGu1KziOw5gxY9TPRiLVFUa9Jy0az4aAEAeYRNw4UrkbR1Fos+ClhUV45AYP6j3xFb+KqBCfCj1DEIU1aEHOFgusrfTjSmniVoUgckAfDoHxAjz/HMGFmWG03xBGuCiEiJ3s12rlE8yIuziEi0IQBgfhLfXi/M3t8EwLIDCcWDaCaPToD+1n/oAN7uOdnzdka8zG0A8jEMNWWHlF1ID6oIRpgz1461dFmvyjhhCLhSwUTH3j6uHDh+sPdUkq8SU0mezQxcXF+kOXlEGDBuH9999XZ8VKS0uxYcOGlET5UjJs2DD9oYQMGjRIfX/ixAlNmn648tZbb+HFF1/s8nX06NGEZaSCvtekzf5/tAFWC2AO4boR2ik8dzaP1QuGYPcyO4S+yh2YCA7OS3B/ZCZ+idM22BqzkbPFIg8RaDHRN9EM9OEQ/IEfZ2e3wDsqgLAr2MlKQCJfSYiO2CVlC/YIwkUheEu9uDAnBvF7YbgtvgTCQrDyEvgDNuR8YYHNZ4et0YqcLyzI25UNb8SlEbNcvg0fPmrBG78YAne2dkn9uBHyFgvqQkFzwjpp6GnMVKHv/peafv366Q9dUvbs2aPOoEA26a9E0pkGp4c8emvS59Nu1bF06VI8+eSTXb4UnwsANegwHbq+crtgdzUPJwfM6idSwVtaBvazIjBFQGB8B+XbiKp+iT577MjblU3N4KBTxxJEEyRexPmbgjg7uwXhIiV2Q18fOc/k7zC0ULisXPmd/quTzxF7AN5RAdSVmSCOJJtLGwqTLCr2GjvcH5mRtysb9pq4xaUMt6Rrfdi8bCCmj3YZtrfAacXovBicHHrlQsHegj6Yr66uDo8//rjmWG9GLyD6LR1KS0vTeo0cOVIjWKmi71Vps7sOsHM8bhxJD1MUMYgXHzBfgHdUAO1zIkCfLCqtcydTLQe5Iwsi6dztcyIQBne2MMj52vpiUVtCIYBPMeX19cYR7BF4S73wTAvJTtxEKI5XaMvrT3w1bWMudE6j3ruzLbhpMPm891j6dwRG6tx2222oqqpSZ742bNiAF198UZ+t10APSZQgQgW9Nbpr1y7s2LEj5dfBgwfxwx/+UFNGKlyUoJxs8aGxw4VmARg7TOnUyYhCsIdx/uZ2uC1d7Z5GIlolPgLxe2F4S71yOLyZ6pCJBcHsj8gWilZotOiP68uLIlwUwvk7g/KQTZ9fIX6eIHIQ+nYgMEVAuChxwBHN6OIO+EUeu5vs8kLBRPUwusuSJUuwadMmlJSUaNbXPPnkk9i7d68mb6boTmCesl4oFWirRFmKoKAXGEmSwHFc2q90uagrt6qebA7k5EVcOyzRUIJGtjzsEZwdTU+n6ol30PZSEd5R9EOx9NaI8lcvBomJddCWi2IhGZ1P6hHsYQSmCAlEhT6PTI+LxVHdWiCSFv+rLYMEA/rQ6I+g2Z+aCDHS48EHH1TfT5o0Cc8995z6ecaMGd3q/F1x5swZ/aEuSWeq/u9//7v6Xr9Oye12a2KQaGdrT6LvHWkhCMTU94shuFyJZmYI8VW7ZgBRRAbGDMSBxgyJF5GVpSwyVMqm85KyjDBLWYmHPN1AsEcQ5YhPJSl9OEoAjfJ2PuZy8ih22IFoNnx+ZVNtRibR+xQee+wxzTqWn/70p5p0PfHrEDh37pwmLRG0gzNVaJFIhiAImkWWRtHS9FKKd999V5PWUxj15JRxmjvI6l5TNhpalDtr5w5jhLValGdREkGctq5dWfL0LC0eyeqIp8Wdstr81lCixYt6SB6bz4kBH/eDuaGrmRUye0XW/6RSPsHnF1EfCAKxEFzOeOAbo2d5+eWXVcfjjh07ki6IpGN4UhEKSZLw/PPP6w93ydatWw1jSvTQQWulpaWGIQFz585V369evbpbcSXpclGCMrDIDX8wgmI7h537FAdR5yIdPIfZnBJkRkLS7TV2KmI1eedzHLaS9TRq3IreSqExwxq0wBqlo3G1eUz+REFkncvK+cKCvL9agPP0LnT6fFrsx5IN5zof//iQFzBloyjHggLnlRNkdbWTn5+Pv/zlL+rn5cuXJ3wsB20BbN26NWE+hWeeeSbpVgHJmDt3btIFfzU1NZo1OsuWLdOkK5SUlGgWXN5xxx0piZUkSSnlM6Lz1Z0GE4pzMOsaAYJowtOfmhIucHPyWfhx33gQmO0APXzRv2iUz2Q9Td5fLVQwGS1C2nMFewSS13jvCe15UYM6yXFr0II+213gvlKcW8RJHCdJe8/R7aTR5wcO1bfjlV3EkrqjJCjHqSQXWEbmGDduHFatWqV+TvRYjoEDB2o6Z1lZGdauXYu2tjZIkgRJkuD1erFz505MmzYNq1evxsSJE9OaenU6nZg4cSKqq6vVQDy6/La2NqxduxZjx8rPYZEXNdKbV+n57W9/i5EjRwJy7M3YsWPx1FNPYe/evWhra4MgCGhoaEBlZSXef/99LF68GE6nU/ObpEPnKzxNfjE3H80REcU2Jx5fcz7h83rvKS7AbI6DrdEKS1sysz55kxyHrcjdYUu6SE+7VYLeAjIjplovdF1mNa/7uAs5WyzAOUuSKWPjuiEPtfh6M6xBG94cXIC+1PibpikcxiMvtZLYmFgIP7+z6zUcVwKZjKC9Eli0aJFmpe19991n+B1XrFihEYilS5di0KBBcDqdcDqdKCwsRFlZGfbv3w+n04kPPvgAN9xwg6aMZIwcORKffPIJSktL4ff7cf/992vKHzRoEJYuXarmT2VRo9vtVstUWL16NWbMmIFBgwYhNzcXI0aMwKRJk3D//fdrwvW7Q/Le2yVRTB/twG+mhlEflLC9yYVnXuus7oQo/nDtAHy/TpLXuGirFkQTgiV+BIbTvhW9GJBj2U1kFXJ8S4F4mpKfBMkZY/brp2aJmFiDNuTusMNxmKwQjouJkjd+jsSLCIwX5JgaPVE0f2PGv8UE3FPcV58oE8WK15pwxJuL+oAJr801abbN7IpAgJ75Skx7u7KKOX0SzXzQ04n6CE0afbBVuuifv2NEsl3NWlpa9IcS8sILL6jv9+/fbxj0lp+fj0OHDmn2DjFiyZIlOH78OPLz8zWbIiVC+Z2mTp0Kq9WKHTt24JlnntFn07Bq1Sq89957Ka1Dys/Px44dO/Dmm28m3RBLYcGCBVi4cKH+cEpc5BaQ8c5e/tw3+NsZF/zBCFbda8Ki2f01ORVq27yY97t2eCPaziP07cD5WeSHzfnCQkWd6gVFgXTuwHARwhh6y8YobI3ZyNvlSHAuCd0/O5u+2Mg5ylYDerHTlmOGxEfg/acowi4/rKft6LNHa/EIognTBnvwxi/o58Voy3xu02ks+5sTTg5YOsOPJ+8u7pRHjyAI6kO1XC5XSutQ2tra1BDq/v37dxlbIEmSOoths9kSrnylhwVGDkHIgVdKZ+nbt29KF38m66e/eyr10+1FknIh/y8+//xz+Hw+CIIAq9UKl8uFyZMna+qhy0xUntJOfRslScKBAwfQ0tKi1tGvX7+L3vu1pqYGDQ0Nndo+cOBAw9midLhIQVGIoikcwZClrSjgXWgWfNj6KIcZYwZQnVEZUpCd3KasFFFsj8+2nL8pDGFwPFLUetoGx98d8kwNXYYCOSaIHNA/guAkCTFOhEniYTtArBij/AqB8R0QrulADFmwfUMW+2nrAnV+vH63xYfTt2Yh7FLuzGb02e6CtVXpqGbk8m3YvGyg7tnO8bZs+rwJ//IGjwILj2mDPVj7bwM1e/AyGL2VDAkKQdnJvdjhhNviw3tP5GBYPj0zQwQFADZ8fg4PvS6qeevKTJ2CwaynbfLdnz6X/htH4uPxG9rhjj5v/LNyjnZBIp0/LiiKcAWmCBprCADcx11wHCZ3lvqAH7ufdmFCsbJtgLbuky0+XP9MOwqsLvAxD/b8tr+8BorB6P0kt7HTZPzQPLw1Pwv1QQktQTfm/a4dflGiqolXVz65ACtuiaE+YMK5wZ3FBACEwUF4poXkBYWJrQ3IIqK8tOjzxj+T/PoHauuFhQhYdGBAFhN6vQ1pk3ANWfToESS8/a9RnZjEv3tTOIzZy9tQ7HCiWfTh/SU5shWj1MNg9G4yKigAcPfkQjx7ix9BScSxC3Y8tV55fIa+w5jxi3sGYv6EdggjFRFQ8sQ7dbgoBO8/6XdgS9ZscxfpeozbRr8PDBdxYabip4lbLcp5gj0CMdeEpTP8+NGE+B4VcVEywy924JGXm9HY4YJHkFDxLzzGD83rRnsZjCuXHrmSH72zCLcM8qHAwmPDUSfWftycoCozfnt/f/iziKORPk5bB2FXkKw0NlxLQ5MsLVXIc3uU98ESP7ylXp3o6AUImPS9C/jlXbSYKJA2vbixGR99RWJTls7wo3xyga6cTLSdwbi8ZNSHQiCdpCkcwe3PNqAp3BfNgg/vPRjD7Tca79q1r92P6UfqdE/pU0QF6ntr0AbHbmsX8SEXQ7xTS3wE4etj8I5SvP6JOjxp68kxRSi0WSBJMd1MShQbPm/GQ69nw8mLKBvmwxu/GMLEhHFV0mNXcqHNgneeKECzQJ4vPO8NE062GMUlRHFjjhNvDi6Qn3/c+e4fH1qEcX6WT974iB4qZOJrKGVEIXVckFc5G7VXixgO42/D+6kzOvpp2U+PNuHf3s5CgRUY6riA5xf1pwSTwbi66IGrOt7RR/Rz4O1/jaLeE0KxzYn7ftdssG8qsT7uKS7A0/lOiOFwgmYp5UYhjAnLG0srxzOJGeHSbHkjJ7rszkInhoN4c3ABbsxTYmq0balt82LBywLyrBz4mAfrHu0rCw8thJluP4Nx+ejxq/lHEwZh1b0m1AclfB3IxYrXmgzC84lQPF4yEHO63CvVDMEeQShLbz1k7qtE3Im2ENCKytP5TtxTrPhCtPX7xQ48vuY8RFMe6j0hPP+AGROK4+uCGIyrkcz1wk4od18zFs0uwMPj/PCLPF75ksPLfzbeT8LJZ+EP1w6Qhz56ompHtPnsKPT0hA+FRLlaztBLA+Lfg/65ZnMm/OZaxRei/xmjeOa1BnzeSnaze3ZOBD+aoETNKuXEvw+DcbXQA05ZY/xiB2Y+/Q0uiPmoD0p466ci7p7cT9cZSQerbL+ASUcawdvi0a7WoAUmiYe1WoT1a4tB8Fr8/O5ByhBEE3nSYV8Jge90AP2Mdl+L4uSYQQYBaURc/rTlJB7f5IDTbkH5GD9+/0jXYfUMxtXAJRMUyHvQXv8f7Wp4/p5fOeRYDAVFEMz4f+0+/LCyHWgxw9pkwYD6kPwUQSMyJyj6MiRehJhrglgcRcQtIpYbw5Zxubgxx6nu0xk/z4xPj57Fbf8HcNotmNzXh1ee7K/zmzAYVy+X9Cof0c+FrQs5NEdEFFhd+Nm68wZOWgCI4uYcF9Zk8Qhsj8Jxiu+0mFBLJoYPxmVwIg9raxb4Azb4t8bwsjOKG3PI85m1Mzpm1LZ5cdsfJRTnWeEXQ3hhcR8mJoxvFZf4So9ixpgBeOGfPWiOiGgK98XDz50z7MgAUD65P56dJcEjKDu7Kf6HS9xsRNEcEfHsLAk/mnANJIk26kjbm8Jh/Pi3LSi2OeERYtj6KIdh+e7L0FYG4/JxGa72KH42ZxgemehDUBKxvcmFFRvOGogKsRiUqFuyR4o+z6XBI8Rwd4mER+8sAtRYE63v59k3mvF1IBceQcJ/lnnkldYk7XK1m8G41FxiQYlbF8sfGIjJfUl4/n/ucuLdT87q8hGcfBb+9FgRCm2tlKgo1goNbb1k7uURYhjquIBVi9xw8sZ7iTy3qR6vH3bALwHlY/z42Zxhunaa9acwGFcll9QpG4fcsWvb/Ji1jMRqNPuC2PoLYMYY+oFF8Y5Y2+bFCxs9eOVLDjBlAzEeMFHxIvrP3UWIkGc1CxEgW8LD10t4+oFC3WNW4+3avK8e816zo8DC46YBHrzyxEBZeJiIML59XCZBgXr3Pvy1BzctD6PAZQcf82D7s31k34ORFRLFyZYAzlzkc65jMT9MJu1WeLGYdivDXIcNOW5O3s/FrBu2kHYdqm/HlOd8KOBd4G0Ctv+7TW47g/Ht5LILCgC8+0kDHnjfBicHTO7rwzu/SXSXNxKZS4VWUJrCYc3iRzIFnnMZ28dgXH4u49WvVB3FvT8YgGdvIZG0n7cm2+j6MjZX9YWQvU1+ufYcjnhzEZREvDbXRIkJc8Ayvr1czh4qQzrpo3cW4a4hHvhFHuv2WOU9VEA5N/UdVf9ZT6Jz9McUUkkjr5c+aMSHtS44OeCnUwTc+wNlRofB+HZzGYc8eshG1zf9+zlwWbmoD0pY8YMgFswphDvbaCf6S00U3pCIZ99uxLqDJMhubolP3mC6p1Y+Mxi9iytIUAiKo5MEiEnwx0J4+HoJhTn6vWIvLU3tIl45wgHRbDg5YLAriB3/SxE7BSYojG83V5ygQJ7Jue93JFAsz8qhPijByQF+eYEx/Z4m0XGgG9PKMR5OXtTWKfIAfJj7HREvLSzSiQmYoDC+9VyBghJn8756bNwt4XiThKhZvzt9HE/Uijyz8cOlk6UhhXSFIquE4YOAn/4gh1rQqPhcmJAwGLjSBSUO8V9cTshDzPVEmZgwGBS9RFAYDEZvgN1eGQxGxmCCwmAwMgYTFAaDkTGYoDAYjIzx/wGnZ+q3aCfYaAAAAABJRU5ErkJggg==;" parent="1" vertex="1">
          <mxGeometry x="1520" y="261.8" width="133.98" height="50" as="geometry" />
        </mxCell>
        <mxCell id="YXAz1OWxP_jkYVnMhaAE-14" style="edgeStyle=orthogonalEdgeStyle;rounded=0;orthogonalLoop=1;jettySize=auto;html=1;entryX=0;entryY=0.5;entryDx=0;entryDy=0;entryPerimeter=0;" parent="1" source="YXAz1OWxP_jkYVnMhaAE-7" target="YXAz1OWxP_jkYVnMhaAE-8" edge="1">
          <mxGeometry relative="1" as="geometry" />
        </mxCell>
        <mxCell id="YXAz1OWxP_jkYVnMhaAE-18" value="" style="rounded=1;whiteSpace=wrap;html=1;absoluteArcSize=1;arcSize=14;strokeWidth=2;" parent="1" vertex="1">
          <mxGeometry x="1230" y="420" width="1590" height="782.3" as="geometry" />
        </mxCell>
        <mxCell id="YXAz1OWxP_jkYVnMhaAE-19" value="" style="shape=image;verticalLabelPosition=bottom;labelBackgroundColor=default;verticalAlign=top;aspect=fixed;imageAspect=0;image=data:image/png,iVBORw0KGgoAAAANSUhEUgAAAJMAAACJCAYAAAAoqAroAAAAAXNSR0IArs4c6QAAAARnQU1BAACxjwv8YQUAAAAJcEhZcwAADsMAAA7DAcdvqGQAACgiSURBVHhe7Z13nFTV+f/f997puzPbWUCkiqIIiooExYqxoxGUqDEWBFGjkZho/AWjfi3R2LHFgjX2FqOioliIDRRRBAQRpfdtM7tTbzm/P2YWd2dn7tzZKbuo79drXr6cwt577uec85znPM9zJCGEAIjFYhiGwS/8QmeRATRN+0VIv5AzkmEYIhqNJr//C0lsa9JYu0lD06HcK7PLznYUWUr+2s8aSVVVoWla8vs/ewwBqzepvLckyksfhvihQcchxz/TBcgyHDvcxbjRbvbbxYnb+YuwpGg0Kn6Z4trTGNC58YUAHy6PoWkCRYZUUjFE/L9Oj8y1E0o5eG8PP+fBSopEIq02+M8aTRcsXaXy2oIwL8wL45REVtNYSBXs2cfOxEM8HLqHizJvYhj7GSGFw+GfvZJWrI1x7bMBvtuqIXRQOqkDIcAADEXij2M9nDq2FIfduiB3dH62YorGBPOWR3l1Xpg5S6K4bOR1igprgl5lCicf5Oaovd30qbElf+Unx89STPOWhPnbM82EIgZC5FdEbRGAYYCwSYwb7uTSk32Uujs57O0A/GzE1BwyeHdxhP98FGLRGhV3kacfVQebAhMPdHP0vm726OdI/soOz09eTJouePWjIFe/2oJHxFdlUnF11A4hwJBgSG8bd0yuoKpMSf7KDstPVkwb6zReXRhh9vwQq+p03LYuVFAKDAFhVXDiSDfH7edi5BBXpw3/7sJPTkyhiMF9/21m5ichfIqELKX2EXUXWleAJV6Z+88tZ7e+O+7095MR07frVGZ9EebVT8MEIgbObjYSZUII8McEhwxxMG6Um8OHu3c4r/oOLyZ/s8EVjzXx0coYHqVwK7NiIQDdEAibzC2nezlshCf5K92WHVZM85dFmLUgwpsLIwDYdnB7IxkhoEUV7NHLxvGj3By7n5vqbm6s73Bi2rBNY9K9jWxu0HHbu7c9lA9EQlgRA/58TAlnHuVN/kq3YYcQU0wVvPNVmDc+jzB3WRSPTdrhVz7ZIoCYBlWlMseNcvGbkW7697Inf61L6fZi+mJ5lCkPN0JM7HBGdSFpiAhOG+Xiyt+VY1O6R7t0SzE1BXRe/zzMm19E+HKdis8udamjEUAzoNQh4XNLrG0ycMhda+wLQNNBscOhe7s5fZSLPQc6u3TE7lZiEgL+82EL019oxqOAo5v0uJguGDvUxQ3nlGO3SaxYF+Okf9bjdXS9yFtpjAhGDbBz6+QKasq7xlDvFmLaWKfx8qch3v4iytpGHZet+xjWhoD9Bjq496LKdu9/tCTC5Y83IbpRXKEhQBUwZncnJ+zn4uBhrqKGwHSZmISI75vd+XKAR+eGKHMV76azIaoLbp9cwaF7utq9728xOPPOerY26u3e7y40xwQ9vTIzppQzpF9xpr8i/In2CAHL1sS48mk/h/9tK89/Gu62QiLR2+0perfNBqIrjaYMeB0SLRHBmTMaOf+eep5+v4VQpLDDaNHEZBhQ79f5078amHBLPe8tDKPpots7G9Pt7Rk6KN083FmSwKHAkjUqd7zawujLtzD78yAxrTDXXfBpTtMFny6N8Pz8CB8ti2IXnQ+L7QpUAy4/ycvEg0vavb+pXuPcuxpobClsb883MR0G1SoctKeL3x3soTKPXvWCPVYhYEOdxmk31XH+Q00sWB7FJe1YQiLRQCvXq8lv0xQ0CIR2LCFBfKRaV6fz5PtB9rp8C0/Pac7bSFWwR/v4282ccFMda+t1fI5UE8WOgSTB95s65hU2hAShWPK7Ow6yBH1KZW5/PcgZdzWwbmvHe8yWvIvJEPDwrAC3vd6Co4Dx1cVClmDF5o4rtuaQ0W18TLlgV2DdBpWT72qg3t/xPrMh72JasibGQx+EKN2BR6NkNrboJOep1jXqO3xHaYseNLjl5ebkt7Mi72J68PVmRG4C75aoSXZF8w5oL5lhl+HFz8N8vbLzdSfyKqZVm1Te/ib2k+qxAGGjYxKCLX+LoG5DlUvintlBOuvxyKuY3l4QxrfjhjCnxBBwwh7ODtsSew12Iue19boeWYLNDTr+Tro78tYchgFzV6rYu8nmbD4wBHgcEpdP9CV/xL4DHYwY4EAzBJ3syN2S5qDB1k4a4nkTUyBo0NJJRXc1IiEcI+FQdTgkZJfMrr3tnLiviypvxzlNUSRO2M/J/oMc2D0yikPeHldkGHE/245IU1iwrqFzYsqbB3zFepWpdzcQyZMDrBjohsAfg8HVCocNd7JrXzsDq23UViiUlcrYLQbjCRHvTPUBnbV1Ois3qXy+LMbH38dwdqNQGivoBpxxsJs/nlSW/FFG8iamuUsjTHuwCVc3r8/QWlOpxCMzehc7Zx9RwuA+hTH0GgM6r3wc5LnPogRadDQ9/V5fd8EQ0LdS4YUra5I/ykjexHT3K36emBvOeePWEBDRBEKAK4+x3oaAhqjgsF0djB/jYf9dHHndlzIjFDFYtk5l9hcRnvk4hMsm5dxOrRgiHrwX0cGtkJfQ5vqIYMHNtfhKsrvIvIlp4g3bWFOfmyNPAIP62PnD2HgFtsfmhvl6TQzD6HxvNhJe+J7VCtNP8rLfkPZxScWmwa8z/Uk/S9aoRDVBLjOgZkCvKoULjvCwy052FiyPcve7IfSYyOk5hFXBneeUcWiWOXt5EZO/xWDUX7dQkUNckmbAiaPcXHGKb7shKwS891WYq54NYHTCFlN1QXmpwhUTvBywuxOPK7ueViiEgMWrYzwwq4W530YpdUhZdxbDgJPGuLngKC9lpT/e19ffx5g2s5FwLPv2asUQcMRwFzecXZ78kSl5ad0vv4vgzHHGkCU4bqS7XaaFJMHYEW6uP9WLIcVHLiuIRPjqMfu4mX1tDUeMcHcbIZG4r+ED4qHA/zfRh8cpoWexEA5rMHJ3J5ee6GsnJIDd+topyzEGXJZg0SaNqGq1xePkpYXfWRTDlYe5Oh2HjfBw3allHbzQqTAElLkl7ptawdW/K8uqLmVXMOGgEh69pIrRQxzELKzIIzqMHeHi5jPLcaRoc8MAOTsNpESPGDQ1W7igNihXXnnlNclvZkNMFfxrTpBgjntVugCvC0bvntqmGdTbTokC81bG4z46NmO8oXftY+fBiyrZtY8dOUshhSIGG+t1vlmnMmdhmMdnt/DV9zHGDEt9TS1hg4k3bWPTNo2msMAwwC5JOLLMWikvlTlibxfb/AYrNsZDQVL9PKLDkEEObj2jjFJP6nFg2VqV/3wcQsvtcRBRBYcOc9Gzwvool7PNtKVR55w76/MScagLmHxECece7U27ipuzMMz0p/0dep+qwwkHuJl2nDfrVcj6rRpPzw3y6UqVlmadxlD8H9eF4KyDPEw7ObXPxRCw8/kb2ckjowtw2aHCp9C3SmHSYR5G7JZdzSUh4M0FIa57PhCvs9OGkAbH7u9m+nhv2lKG362LMeXBJsJBIycDnER7Tj/Fy0kHto8wNSPnkemHzRovfRLKi8dXlmDedzHWb9MZWKtQVqJ06OEDe9kZvpONd1bEsOlxO0rV4ZiRbq48xWfZNgpHBV98H+O2FwJc82KA7zaqhMKCWKLariLHxXL4UCd77eJM/jkkbJ9HZrfgtsddGEJAOCLY2KDz3Lww734RpsQlUeWVLV2XJMHgnez0r5L54JsYEVXgc8s47BLHJ+7P7ez47zQFdGYtCDPtUT9CFR3arDNIgMcmcfgId/JHacl5ZPrvvCDXPtuMw/pomBHNAJdD4qi9XPx1oi+lJ7qpWWdzk8HmBo0tTQYTxngsp0nPWxLmxleDbK7XwCSAL6oJrp7g5cSDS5M/2s7YK7YQVEXKaal1i6bMK3Par9yceWRpyntJxefLoyxZG+Ow4W4UGfrU2FKKZM7CEPe8EWRDvZ62+H1nEIAmYMHtPZM/SkvOYrrmiUbe/DJakB30mC7wehSuO83HAUOzmzJSsX6bxsNzgrz0SYgSC8F7IVVw59llHLZPen/Lb2/Yyur6zNNKUBUM62PnrxN9DN3ZjmJR+OlYu1Xjnlebee2rCOUFKgrWFBXM/ns1fWutFcjI8fHAm4uiKXtMPnAoEuGIweWPN3HZY0055X29vyjMuXc18Nr8sCUh0booSGOftFJVam1ILrFLrNyscd69Ddz6UiD546x4Y16Q0++o54Ol0YIJCeIe9XlL4/WvrGDeUhlYt0UjEM3PHJ0OWYqPue8uinDxzCZiWfo+QlHBA7MCnP1AE4GQgd3as48joCSDmHwe6zcvSyAZ8NzHIc65o56NDdkH8c/5MszVzzWjx+JnuhQSp01i9lLVsj2c0+V8vjyCBbsyL3hs8NGyKKs2dkw7MuPvjzbyyLsherutP/RWNAGlGX7n9ciWG7sVp03im3Uqp9zawNrN2d3PKx+FMk6p+aQuoNMStjYjdFoKQsBbi2O4UqROFwqfA+59vcXyzS36LsrCTdk53tqiC9Iuw1vxlXT+/mVV8OD/Qh2SFVIhBLz4UZCPVxY3LDqYCK2xgnlLmRCKGGz0W2iFPGKTJVY2GZadkXsNdvLyX6o4ai8X/miWwwdgCJHWOdiK1yNvD2uxiiHA5pK494IKrjulzNLiRZJAjYmstl3yQWNIsKHJ2h+1cBupqQsYRILWFJsvojrccroXTxZGZ4VX5tqzyvnH6fFzS7J5GDpSxqW825mdt1sHxg5z8c5VNQwf6Mjqt6cdXso+AxxZ3UOuSBIsW2UtY6XTYtrk12lIeIqLgWrAOYd5GDogtQMxEyeOLuGpv1Sx7yA7UYt9oDaDvQTgK1UsjUyGiJfnuXNSOdeeWWbJiZmKS3/jxWltpZ4XFAk+W24tdblzdwQsW1Xcudvnlhk3Kr2/JxOSBD3KFe6cWsk5Yz14HJKpCISAXr7MzeNySJilFAjiwX4jdnHw1tU9OGCoy7JzNRW797UzsK/D9NrziSzBBytVohZCWjK3VhoWfBvLKbArGwwBIwfZ6Vube0yw0y5x0Tgf919UicMjo+qpG0kAVRZOs3TYJdPVnKrDtaeXMWNyBT2y2DRNh90m8X8TvGzNzdecFS4ZlnyfearL3FopiMQE76+IZTXf50JYE1x8gtd0JHx7YYh7X2/ukHmbCon4Htjbf6/hhJEe9DT/rs/CVORUpJQJA4YBtbU2Hr2ognGjPDgtOko/XRbhsocbTVd4/XvZmbC3s2i2k0OBD5YUSEwr1sRHJWvNkxuGAeNGuDKeJHnlUwEeezfI1PsbiVhcubmdEtNPK+PB8yu276O1YgjYuTbzSFLqlNrtSwpgU0jw+4PdPH1JFcPTbBKn4q35Qc5/sInZX0WY9Wkw+eN2nHJIiaVVYD6wKxLzVqsZxdupy/lgcQRXit5YCHQJjh5lvnN932sBNC1+5MVXK2NMe6yJrY3WvMuKDHvv4uSNq2sYvYeTiCZojgl6+GR+MyZz+MXAXjYOGuHGENAYE/SpVHjiwgouOqksq1Xns++3cM0LzXhkKHFI/Ov9EIFg+qc3pI+dyhwjKrMhHBIZg+Wy3ug1DJhwWz2bs/TcdpYqn8yjl1SlLUfcGNA5884G6tpkoeoCqitkHru4ih5pfpcKTRNsbtLxBw36VNvwlciWRl9NF2wLGIQTIszk6GyLEHDjc37++1kYqc1orxpw99QKRg9JP7Jd/UQTsxaGi5JF7VQk7r+4kiE7p19KWr/rBP4WHT2HDddsEAJ6VtlMD6D5eo3Klqb2PUaRoK7BYOrdDXz9g7VlLYDNJtGn2sbQfg7KLAoJwKZI9KpQGFhry0pI4ajg+uf8vDI/HN+3a/OZIsHTc1ravNORU8a4aSlOnyYQE6ypNx/trd95gq3+7GODO0tYE0wY6TQ19Gd/Fkr50BUZNjXpXHR/I0tWWxdUsWgJG5w+o55Zn4VTbtjKErz1TYxNdekf4NABTmoyeOjzhU2CRd+aG+FZX8naBo1gkZ5NSINfpYkJJ1Hf4L9fpg+BkYCYJphydwOvfRbKaEAWi9WbVabe38jaTVraawcod0i88GF6Q1yS4Lh9XaYrv3whS/D+EvMHn7WYFn9XHP+SIWB4rUKFL/0U9+mSMPYM0YWtD+vaZwO89FH6B1Ms1m/TOOfuRlauU3FkaH2bAu99q5qmHO29qwPVzNGVJyQJfmjQTUsVZridjry/OP1IkE+EgP12TW98ArzyZcxyOrQiwfTnA9z4sp9gkWy+ZD5ZGmHyjAZC4cyRma1EQobpA+xdqVhug1xxK/Gwo3RkJSZ/i8E3WzXLDZELhoDBO6f3LYWjgo1Z1JWUgGqnxAv/C3Ptk/7kjwvOvGVRLn2kCX8WQiJRInqLya59dalMWRZGfy647RJzvk4/1WV1FQuWRygtUvySLgQ9KtOLKRAy0DoxwjgVmL04ymWPNaFZ8JYD1DXpPDs3yEsf/vh658uw5f2xpatinHdfg/WU5DaoOmxsSm+El7hk3Dmk5WfLyjqdcBqncFZiemNhtGjOSo9dosJk1745ZBCMZi8mALcNlqyK0dCc+fdRVXD2/Y3c/koz/3z5x9ffn/LzzZr0vbQtz84N4bZlF6rSiiLB+s3pxeRxSSj2rB5jTkRDBo1pVvOWryIaE6xs0IvmwnfaJUpMPMjNEUEkBx+LoUi4LOyX3f96gG1btO25dK0vYcClM5tYY8F5O7yfjRaLo2AyErAmRR3yVmyKhJr5NvJGQ8hgS5qgSMvSaGzWUXNMAc8GRY7vkKcjpIlOVakzDPi20eCak0ozZv6++H4LD70bStmBZAmawwa/e6Apo0F/ymGlHLiLg8ZIPIU8KyTYZhI2K0lQ44rfVzHQdPhuQ+oROUUzpWaz36DeZK8o3yiyeaEvTUud+JiMqsf32vrXKBw90s1fJ3hZflsto4eZ7/dFooIHPwnjNRkdAVS/zrfr009Drdz7h0pe+ksVU44u4aChTnxuiZAqLNUE8Gdo90p3Bv9IHrHJ8HmaYDmTx9WelRtV9PQdpOiYGb+qLvBHBTpw8VElfPrPWp65ooarTy1j/JgSS3FFLqdEf5NtnFYqSyR6lGVuRrtNYugAB5OP8nLzpApmX1/Lf66oZtzeTrZFBSFVpLwnKZHhbIZNzqLeUI5IwBtfp/aEZ26FBF8UMRgOQJC6cVtpnQJFogxfiyroW6Vw7P5u/naKj1nTq/n05p6cdYwPbye3HE7YJx5FYIbTrVCZohqvFQb2tnPVWRUsvb0nT06rZMqxpRyyp5MSh0RzTKDq8RjOTLl+qlHY3MW2tP6dVCddWWplIeDtxZGUtkOh0PX4bnw6FBnCOkQkuPAIDx9c14Pn/lbD339bxvgDSxjQy46S4SFkYp/BToId22w7Aujhk/HkuDR3OiSGDXQy+YhSbjqngjk31vLiX6o4ZpiLH0ICT4bOsDVY3EOBHGkyfc2vMsGqjappoxaCmCoIp56aARjax86b06tZeGtPzj2+jCoLU1K29K6xceTeLoJaxxSjsCqoLVOYMrbzcelmDOnn4LpzK1g7oydXn5a6pA+Jjt6YetYpGC6bxOxl8VqjbbEkps+XRylJH8ZSEEIqBExWST6PzIBe9qy8yZ3hnvMqmDW9msG9bIT1+NQb0OCq8V5enl7DSJON6Hzgdkr075W+8WOqQO6CUxIaWowOybAZxSREPBTCXuin1oaWmOCYfbOrWlZIdu5h54m/VPP4RZVcMsHHp//owfhDS3OeRvOBLMOpYzwMqLGWcpUvIkGDbUl7hhnF1BI28Dfnf04Wra9E7HXrKyLgqOEurvt9Of0yxH0XE0WGvXZxcvqBnoz+qWJit0mcOsbD/51RjmyPp2+1fYnWV/IPc6Qh1DGjO2PY7qpNKpPvaiBkIW8qE5oedzb29Mr0LJMpccmUl8pUl8mUlyn0KpMZ3NPGoJ3spg7LfBCKCDbWafG/3cnVWCY0HVasjeF0SPSutuHO4LPKFX+zwarNKt9t1alrMQg06zQFDIJhQXPEYPkmDX9E4HVIOZsHmgGTxnq44PgfDynKKKaPlkX54wMNOHP0CxjAhFFuJh9VWpSTAYSIHzgY0wRRVdDQbPDt2hifL48x55so65sNXLKE0w6PXljJvruZh7tkS0NAZ8Jt9Wypi08FQV0wtMbGwUMc7LOrg0F97FSWKjjs8dHFrnRu7y5blq6K8acn/Pj91iMuUmEIGNLLxuOXVW9/L6OYHnojwIPvhHI6niGowtUTvZx0QOHScyIxwfqtKmu2aCxeq/JDgyAcMmj062xs0mmJCeyyFE/Rkn4sPWgI0BWJeTfV5vVAwn+/28KM11ra+YiEiB90YwhQhaDcJdG7UqGsVMFdIrN7jcyQPnYG9LLRu9qe1+tpSyBocPEDDSxfn1s4UX1Y8MWttdv9eBnFdN4ddSxa1/k/KgRUl8i8fl2P5I/SYggQhrBUqm/e0gjXPhNg0TYNr03ClTg/JJvrrY8I5v+jBxV5HDFvftbPi/NTx3enQiQ894aIdz5dCIbV2nh+ek2HgxOTMUTcJ5fN6DZ3aZQ/PZTbjBNSBQ9OrWDU0PiK1vRWwxHBByvVrB5MMgKotpBmLQSs3qTyyFvNTJvZyCUzm/h0aYSFyyOmee7VFQpBTdC3VKbCJeG2ZyckQ8BeO9nyKiSAUXuYJ0IkIyXKLrpsElVuiSqXzIhBDlMhrVwf44Mvw/y/Z/xcdH8jlz7axOufBi2dHywnqgPngkuRmLPoRyeX6VNesTaWMU45E7IEn6xWWbu142aobkCdX+eN+SEmXL+NI6+r4963WvhseZQFK6Kc/0AjU2f6WZ3it60M7Gmnutbe6YbRBUw6Kn013c6yV387tTm4NmwK/ObA9A5RIeCWV1r4w8NNfLAgzOJVMeYtjXDlMwF2mbaZyx5o4OtVMZpDRoe2UTXB25+FcGTT61IgyzB/3Y97tqZS+W6DiknHsEylS+LC+xp4fX6QpmaDTXUab84PMm1mI2fcWseVzwTY0KhT5Y7n7UuJnuqxSwhd8JlZ3LEMN4wvpS7SOTVVe2X27p/eKdiWQNBgwzatg+c3FeU+hQOHONIWxshE31obu/VJf13bmnTW1mn4nO1HYrddYqBXZu7yGGff2cC5d9Vzw3N+5i0Js7FOY+G3Ef78SBOzvszP9pikie0hOKY20xNvNTPjrZaUhRk6Q0QTNKtgl+Lhsy575tOMREJUs6/vYeouuP7JJl79ImLZRiExMv5qiJO7plYkf9SBt78Ic+njTYQ1OGhXO/dMrcyYcNkY0BkzfSs+C0F4bQnEBE9dXMHeu6b3rr/3dYTLHmmyVH/dEHH7JqzHK5qU5ME10Ep1ucK/p1VR7pXNR6Yqn5wx/CEbXDaJGrdEecK2sXI/ElAXMnjtY/M0pTN+XYrLQtWStmyOCKYdn3mKW7dFZfpTfkrtEj3cEktWa1z2lD/jCFXhU5i4v7vDvp4ZMR1+O9pjKiSAmW+0WF5hyxKUOuJt700ayXJFViTsCd+y6eUMHWDtpKFCU2KXuGtuuMNeUFv619o4/QAXoQwhI60YAo7fw8HAndJPJSTqCNz0YjO2NunbdgWWfhdl2TqTnegEJx7oycoQry2TmXykecGMj74O8+X63BZG+UAIsHnk7eWtTcXUr6ed3XoWd88nHS1NOvO/M394k4/1cvieLsuj6W8PMX9oAMvXayxc3TFkIhyDmW+a1wIAGNzLhteiIb4pLLj4+FJ6V6ffRgpFDO6ZHaKswN50K4RUwXkH/DiCmopJkuIrHZOE0qKhADNeChAxcRPYFInLx3vpWZ65NndVmcywfuajkmHEy/UYKYxomwyzl0T5eHH6xQHEi9KfMdKVMcjOEPDnIz0cMzL9Cg7g8xUxVm9WLZkIhcQQ0Ktc4aj9f7xeUzEBjB3uYrfe6XtKsZAl2OA3uOdV86MielXZuGVSBbrJ5qZmCA7Z3Wmaeg7wzoIQc5enr93pc0rc9nqLaR0lEoW5zA5R1AzBPgMdTDr6x32uVKia4Jrn/elvrIgoClxzWvvrzSimEpfMXVPKEYkd6a7EocDrX0RYttZ8uhuys537LqhAkaWU7R7SYNKRJaa2TCBo8I83g/hMphMpcVbdvBXm0WklbplzD/eknH51AwbU2rnr/ApKTCI2dR1ufNZPS5GjKlMR1eGUA9yM3qP9IiGjmABqym3cOyn1MZ7FJhwVXPO0+egEsN9gJ7edW05Uax9Lrhswfl8XNeXmo+17i8KEkuo+pUKW4apnzadfgEP3cuNJchFohmBQLxv/urDC1O0BsHhNjFlfReLJA11ITI+fpXzxCR1HUUtiAth3VydTjvAQS2E/FBNZgpWbVW5+3m9aDFWS4j6kf/+piooSefsyXlZg/MHmhncgaHDzy82WfFYSoEbj06/ZyD2wp43aGmX7SGkIGDnIyZN/qaIqw3TbENCZ/mhjh9Mxi40hYFBPG5eOK01ZftpCc/3I73/t5ayxJV3uLnAoEi/MD/N+BuMXYM/+Dh76YyXD+tuJ6VBRrrBLT/NR6aYXA2i69VQ0hyLx+heRlFtGrTgdEuce7CGsCjaEBGcf5ubWKfGp2IxQxODSx5vY1iLS2m7FQCQWHXdMLk9ra2YlJkmCc8aWsmd/e1aOuEJgAy5/tInFq8ztJ4Cda2zcfX4l40a5OXkfl2nq0/ebVOZ9G7U0KrWlJSx4dq65Y/Wo/T3s1MPGUxeWc8G4zAVUDQEz32lhyQ9q1teTb3QJ7jivgp1M3Bam2ynpaPDrnHlbXZf3FiNx7PwDF1cxIMNoQ8LJFtMETpMNx6ufaOLNL7PblmklrMKT0yrYc2D6QLuWkJHxcB8S13rnKwGenBvM23ZWZwnEBJefUMoZY9MfxE22I1MrlWUKt0ypxJbBaCw0sgT+sOCCu+v53sI5dJIUL4iRjkUrozw1z3oMUjJuO/zj5WbTkBmrQnrpoyDPfhTqciEZAk77lZuzfm0uJDorJhJ1qK+cWNxjF1IhS9AYFlxwbyPfpsgytUpL2OD/vdBMtcny3ArLNmjMX5l56k2HIeD2l/3c8p9myzZbIelZbWPa+I4rt1R0WkySBMfs5+HSoz2mq5hiEB+hDM68vZ73v46YZgKnQ5LgrFEuBvV30LtSwSbHoxxUPR483xpua4i4Z1w34gkDES3+8rok+vSwcfBQJ97MM25KAkGD2/7j55kP46dddqWYDAHCKTPzwvKM0RGtdMpmaks0JrjgvgaWru0GG4+AKuDsQ9xcfGL6LFgzDAOagwaNIYNtAZ11mzU21mnUBwTNQQMDgSJLVHplaspl+vay0avKTnWpjM8jZTzTNx3bmnQueDBegTfTdFIMFFnirvPK2WdwevsvmZzFRGL5OuHmehqacst4yBctMcFBuzn483gfg3qb7791NTFN8PGyKDc+48cfFnkJWMuViCa4dJyX3x+ROTynLXkRE8C361Sm3tdganwWE0OAZJM4/3APZ/w6tZOtqwlHBVc83MjHK2PYElNtVxPW4OwjPFxyvC/r68lbP9htZzt/Pcnb5fZTK7IEki545P2QqTOxK/nz434+/DaKPZF+1dXoBuw7yM6kw0s7dT15ExPAMft7uPgEr+VjS4tBlU+mJo3Htqs5fLCtUw+tEBgCyt0St59b0en09879yoSTR3s4cA9nyh3yriAUNvCnSP1RNUGdhY3cXFE1QTBNhOj879Uu37htRbJL3Hl+JWWdFBKFEJPLKfHPM8sZVOSqHOmweRRqUuTELVunMu7GOk6/pY6Pvw4nf5wzwbDBM+80M/bqbVz2cGPyxwBMPMCNP01N7WJSHxb8fXwpu5sc/2WFvBngyazZqjFpRgPBcNfF39RHBA9NKeeQvX8shhqOCh56u5n/fhwmGIuHp0R1gZAlDh1sZ7d+dvrW2Ni5UqG6TMHrlnG5JBxJdbx1XRBV46Lxhwy2NOqsbtDZsEXjq+9jfL5Oo9QW3wTWDditt8IVE8sY1t/x4z8CTJ5Rz9eru27vzRBw1mEeLhxnzTFpRsHEROJEg5NnNNLLU3w1GQYcvIeDmydXthPBh99EufjBRtwdB6vtI6ksgZBAliQMCTQR/38SQ7kq4kdmGQKcgJSovykSs5mUYmVmCNipXOHlq2ravb94VYwL7mvoso3zQb3tPPzHStNtJqsUtD/sN8TFTRO92x9EMXG6JC4Y13F5+/CbzTjT3LXcpqCFlKh3IOkCuyFw6PGXTRe4DYFdFzgTLnFhxL/f+vvkv0ni316xTeO9haF27+/Rz8GY4S7Uwptv7dCNeDjOPVPK8yIkCi0mgFMOKWXkwM5ntnaGqCY4/QA3A5KOrv9+Q4wFq7rOU1/qkLjv/XC7fDtFhmtPLaPcXdyw6BKXxJ3nlFOex5VuwcWkyHDblAoG93WgFmEoVw0Ys7uL85NGJQHMnBPCk6de2BkkwN+gsW5be7+Xwy5xy+TMobv5IqYLLj/Jy64m6eedoeBiItFYt55ZZin8IlcqPBKX/sab/DaBZoMla7vO0G2lLihYliJcZu+BDg7e3VHw0SmiCS6b4OOYNilK+aJoTbtTtY0bT4+PFoVqL0PA8IFO+iVNbwDrGjQaTM4gKRYOGf63sGO4sSTBn8f7Cjp6qzoctqeLEzLk5nWWookJYPRQF9f8rqxgK5eIJjjtAFdKA3jJqlhOp0DlC1mCZxakDpOpKlM4eHBhRidDQL9KmZsnledcBD8dRRUTwKHDXPx6pJtIAbbLWutYJqNqgpnvhSjisWymVDklHnu7OfltAAJpvOW54nTJ3Da1sqAb3kVvXodN4vrTyhg9KP9JCSUOiX//r6M3+6FZARoCesoRqyuwK/DyvAhbG9tPuxu2afzvh/yvNjcEDW47w0f/FNN/Pimo09KMLY06k2bUWzqNMhskCcaPdnP0iHi26TuLorz4SShj+ZtioxnxXLrTxrgZ3NvGyk0aD70doj7NKZOdRQDTjivl1MOzi03qDF0mJoD1W1X2uXIbgyzUvMyWYCKuqiTLQlvFxkgU4nIqYM/zFGQYsN8uDu75Q2VRQoDz/xSzoE8PO49NKS9IsHOJQ+r2QiJhkJc64nXA84lmwOB+dm6fUlGI5k1Jl4oJ4NiRHo4c7urytPOfGh63zC2/L8NZxA7V5WICuOqMcg7aw3qRrl9Ij0iMSjef4aNXVWEN7mS6hZgUGa76rY9yC8eT/oI5MR1uOKuMUUnlbopBt3l6lWUKM84ux2WTMlZ9+4XURDU4bpSbQxMnBhSbbiMmgD36O7hlcnmXhKzs6BgC9uln47rTykxPNSgk3UpMACMGOfn9YR5auknK1I6AIaDMK3PDpMz1zAtJtxOTIsNFx/v4zT6uguxR/dQQQENM8K8p5dSW5y82qTN0OzG1cunJZfTrJkkJ3RlJghlnljGoT/vY8q6g24qpwitz/4WVBPTChazs6GgGHDHcxbEFiE3qDN1WTCRWeDOnlFs6d+7nRlSH0UOdXHV65wp0FIJuLSaAA/d0ceZBbqIpQkt+rggBvasUrjrFV7RQXyt0ezEBTB3n45Qxnm6Vdt5VCBGvh37b2eVUp0gu7UpkqbsE+WTgknFe+vez/6wNckPEDzWcMbWS3XLMvi0EUjQaFUZ3C/ZJQzBs8Oi7QR6cE8QlxYtu/VwIqoJhfe1cdpKPvQY6uk2gX1skVVWFphUghraArNui8c8XAyzaoMXTbX+i6z1DxM9zwybx5yM9HH9gSUHDbnNFMgxDRKPmZ390R4SI14Dc2qQT6w7HThUAWQZfiUxthdKtRdSKJIQQmqaxo41Ov9D9+P9Nejzl5DYlCQAAAABJRU5ErkJggg==;" parent="1" vertex="1">
          <mxGeometry x="1560.16" y="391.8" width="53.65" height="50" as="geometry" />
        </mxCell>
        <mxCell id="YXAz1OWxP_jkYVnMhaAE-21" value="Kubernetes Cluster" style="text;html=1;align=center;verticalAlign=middle;whiteSpace=wrap;rounded=0;" parent="1" vertex="1">
          <mxGeometry x="1490" y="387.7" width="60" height="30" as="geometry" />
        </mxCell>
        <mxCell id="Kn3coWjFFDy4Nsz5DhpW-3" value="" style="group" parent="1" vertex="1" connectable="0">
          <mxGeometry x="1320" y="500.00000000000006" width="213.23000000000002" height="250.78999999999985" as="geometry" />
        </mxCell>
        <mxCell id="YXAz1OWxP_jkYVnMhaAE-81" value="" style="rounded=1;whiteSpace=wrap;html=1;absoluteArcSize=1;arcSize=14;strokeWidth=2;" parent="Kn3coWjFFDy4Nsz5DhpW-3" vertex="1">
          <mxGeometry x="13.230000000000018" y="30.789999999999964" width="200" height="220" as="geometry" />
        </mxCell>
        <mxCell id="YXAz1OWxP_jkYVnMhaAE-82" value="Ngrok&amp;nbsp;LoadBalancer: 4040" style="text;html=1;align=center;verticalAlign=middle;whiteSpace=wrap;rounded=0;" parent="Kn3coWjFFDy4Nsz5DhpW-3" vertex="1">
          <mxGeometry x="13.230000000000018" y="0.7899999999999636" width="190" height="30" as="geometry" />
        </mxCell>
        <mxCell id="YXAz1OWxP_jkYVnMhaAE-83" value="" style="aspect=fixed;sketch=0;html=1;dashed=0;whitespace=wrap;verticalLabelPosition=bottom;verticalAlign=top;fillColor=#2875E2;strokeColor=#ffffff;points=[[0.005,0.63,0],[0.1,0.2,0],[0.9,0.2,0],[0.5,0,0],[0.995,0.63,0],[0.72,0.99,0],[0.5,1,0],[0.28,0.99,0]];shape=mxgraph.kubernetes.icon2;kubernetesLabel=1;prIcon=svc" parent="Kn3coWjFFDy4Nsz5DhpW-3" vertex="1">
          <mxGeometry x="82.23000000000002" y="44.39999999999998" width="50" height="48" as="geometry" />
        </mxCell>
        <mxCell id="YXAz1OWxP_jkYVnMhaAE-86" value="" style="rounded=1;whiteSpace=wrap;html=1;absoluteArcSize=1;arcSize=14;strokeWidth=2;" parent="Kn3coWjFFDy4Nsz5DhpW-3" vertex="1">
          <mxGeometry x="50" y="104.39999999999998" width="130" height="120.39" as="geometry" />
        </mxCell>
        <mxCell id="YXAz1OWxP_jkYVnMhaAE-84" value="" style="aspect=fixed;sketch=0;html=1;dashed=0;whitespace=wrap;verticalLabelPosition=bottom;verticalAlign=top;fillColor=#2875E2;strokeColor=#ffffff;points=[[0.005,0.63,0],[0.1,0.2,0],[0.9,0.2,0],[0.5,0,0],[0.995,0.63,0],[0.72,0.99,0],[0.5,1,0],[0.28,0.99,0]];shape=mxgraph.kubernetes.icon2;kubernetesLabel=1;prIcon=pod;direction=east;" parent="Kn3coWjFFDy4Nsz5DhpW-3" vertex="1">
          <mxGeometry x="83.23000000000002" y="116.79000000000008" width="50" height="48" as="geometry" />
        </mxCell>
        <mxCell id="YXAz1OWxP_jkYVnMhaAE-85" value="" style="aspect=fixed;sketch=0;html=1;dashed=0;whitespace=wrap;verticalLabelPosition=bottom;verticalAlign=top;fillColor=#2875E2;strokeColor=#ffffff;points=[[0.005,0.63,0],[0.1,0.2,0],[0.9,0.2,0],[0.5,0,0],[0.995,0.63,0],[0.72,0.99,0],[0.5,1,0],[0.28,0.99,0]];shape=mxgraph.kubernetes.icon2;kubernetesLabel=1;prIcon=deploy" parent="Kn3coWjFFDy4Nsz5DhpW-3" vertex="1">
          <mxGeometry x="153.98000000000002" y="81.40000000000009" width="50" height="48" as="geometry" />
        </mxCell>
        <mxCell id="YXAz1OWxP_jkYVnMhaAE-87" value="" style="aspect=fixed;sketch=0;html=1;dashed=0;whitespace=wrap;verticalLabelPosition=bottom;verticalAlign=top;fillColor=#2875E2;strokeColor=#ffffff;points=[[0.005,0.63,0],[0.1,0.2,0],[0.9,0.2,0],[0.5,0,0],[0.995,0.63,0],[0.72,0.99,0],[0.5,1,0],[0.28,0.99,0]];shape=mxgraph.kubernetes.icon2;kubernetesLabel=1;prIcon=node" parent="Kn3coWjFFDy4Nsz5DhpW-3" vertex="1">
          <mxGeometry width="32.07" height="30.79" as="geometry" />
        </mxCell>
        <mxCell id="YXAz1OWxP_jkYVnMhaAE-88" style="edgeStyle=orthogonalEdgeStyle;rounded=0;orthogonalLoop=1;jettySize=auto;html=1;exitX=0.5;exitY=1;exitDx=0;exitDy=0;exitPerimeter=0;entryX=0.484;entryY=0.022;entryDx=0;entryDy=0;entryPerimeter=0;" parent="Kn3coWjFFDy4Nsz5DhpW-3" source="YXAz1OWxP_jkYVnMhaAE-83" target="YXAz1OWxP_jkYVnMhaAE-84" edge="1">
          <mxGeometry relative="1" as="geometry" />
        </mxCell>
        <mxCell id="YXAz1OWxP_jkYVnMhaAE-143" value="" style="aspect=fixed;sketch=0;html=1;dashed=0;whitespace=wrap;verticalLabelPosition=bottom;verticalAlign=top;fillColor=#2875E2;strokeColor=#ffffff;points=[[0.005,0.63,0],[0.1,0.2,0],[0.9,0.2,0],[0.5,0,0],[0.995,0.63,0],[0.72,0.99,0],[0.5,1,0],[0.28,0.99,0]];shape=mxgraph.kubernetes.icon2;kubernetesLabel=1;prIcon=secret" parent="Kn3coWjFFDy4Nsz5DhpW-3" vertex="1">
          <mxGeometry x="87.19000000000005" y="176.79000000000008" width="42.07" height="40.39" as="geometry" />
        </mxCell>
        <mxCell id="YXAz1OWxP_jkYVnMhaAE-144" style="edgeStyle=orthogonalEdgeStyle;rounded=0;orthogonalLoop=1;jettySize=auto;html=1;exitX=0.5;exitY=1;exitDx=0;exitDy=0;exitPerimeter=0;entryX=0.5;entryY=0;entryDx=0;entryDy=0;entryPerimeter=0;" parent="Kn3coWjFFDy4Nsz5DhpW-3" source="YXAz1OWxP_jkYVnMhaAE-84" target="YXAz1OWxP_jkYVnMhaAE-143" edge="1">
          <mxGeometry relative="1" as="geometry" />
        </mxCell>
        <mxCell id="Kn3coWjFFDy4Nsz5DhpW-4" value="" style="group" parent="1" vertex="1" connectable="0">
          <mxGeometry x="2260" y="500" width="470" height="351.99" as="geometry" />
        </mxCell>
        <mxCell id="YXAz1OWxP_jkYVnMhaAE-25" value="" style="rounded=1;whiteSpace=wrap;html=1;absoluteArcSize=1;arcSize=14;strokeWidth=2;" parent="Kn3coWjFFDy4Nsz5DhpW-4" vertex="1">
          <mxGeometry y="30.789999999999964" width="470" height="321.2" as="geometry" />
        </mxCell>
        <mxCell id="YXAz1OWxP_jkYVnMhaAE-29" value="PostgreSQL Node:&amp;nbsp;5432" style="text;html=1;align=center;verticalAlign=middle;whiteSpace=wrap;rounded=0;" parent="Kn3coWjFFDy4Nsz5DhpW-4" vertex="1">
          <mxGeometry x="30" width="150" height="30" as="geometry" />
        </mxCell>
        <mxCell id="YXAz1OWxP_jkYVnMhaAE-38" value="" style="aspect=fixed;sketch=0;html=1;dashed=0;whitespace=wrap;verticalLabelPosition=bottom;verticalAlign=top;fillColor=#2875E2;strokeColor=#ffffff;points=[[0.005,0.63,0],[0.1,0.2,0],[0.9,0.2,0],[0.5,0,0],[0.995,0.63,0],[0.72,0.99,0],[0.5,1,0],[0.28,0.99,0]];shape=mxgraph.kubernetes.icon2;kubernetesLabel=1;prIcon=node" parent="Kn3coWjFFDy4Nsz5DhpW-4" vertex="1">
          <mxGeometry width="32.07" height="30.79" as="geometry" />
        </mxCell>
        <mxCell id="YXAz1OWxP_jkYVnMhaAE-75" value="" style="aspect=fixed;sketch=0;html=1;dashed=0;whitespace=wrap;verticalLabelPosition=bottom;verticalAlign=top;fillColor=#2875E2;strokeColor=#ffffff;points=[[0.005,0.63,0],[0.1,0.2,0],[0.9,0.2,0],[0.5,0,0],[0.995,0.63,0],[0.72,0.99,0],[0.5,1,0],[0.28,0.99,0]];shape=mxgraph.kubernetes.icon2;kubernetesLabel=1;prIcon=svc" parent="Kn3coWjFFDy4Nsz5DhpW-4" vertex="1">
          <mxGeometry x="155" y="46.789999999999964" width="50" height="48" as="geometry" />
        </mxCell>
        <mxCell id="YXAz1OWxP_jkYVnMhaAE-76" value="" style="rounded=1;whiteSpace=wrap;html=1;absoluteArcSize=1;arcSize=14;strokeWidth=2;" parent="Kn3coWjFFDy4Nsz5DhpW-4" vertex="1">
          <mxGeometry x="60" y="119.78999999999996" width="240" height="212.2" as="geometry" />
        </mxCell>
        <mxCell id="YXAz1OWxP_jkYVnMhaAE-77" value="" style="aspect=fixed;sketch=0;html=1;dashed=0;whitespace=wrap;verticalLabelPosition=bottom;verticalAlign=top;fillColor=#2875E2;strokeColor=#ffffff;points=[[0.005,0.63,0],[0.1,0.2,0],[0.9,0.2,0],[0.5,0,0],[0.995,0.63,0],[0.72,0.99,0],[0.5,1,0],[0.28,0.99,0]];shape=mxgraph.kubernetes.icon2;kubernetesLabel=1;prIcon=deploy" parent="Kn3coWjFFDy4Nsz5DhpW-4" vertex="1">
          <mxGeometry x="270" y="105.78999999999996" width="50" height="48" as="geometry" />
        </mxCell>
        <mxCell id="YXAz1OWxP_jkYVnMhaAE-78" value="" style="aspect=fixed;sketch=0;html=1;dashed=0;whitespace=wrap;verticalLabelPosition=bottom;verticalAlign=top;fillColor=#2875E2;strokeColor=#ffffff;points=[[0.005,0.63,0],[0.1,0.2,0],[0.9,0.2,0],[0.5,0,0],[0.995,0.63,0],[0.72,0.99,0],[0.5,1,0],[0.28,0.99,0]];shape=mxgraph.kubernetes.icon2;kubernetesLabel=1;prIcon=pod" parent="Kn3coWjFFDy4Nsz5DhpW-4" vertex="1">
          <mxGeometry x="155" y="161.99" width="50" height="48" as="geometry" />
        </mxCell>
        <mxCell id="YXAz1OWxP_jkYVnMhaAE-99" value="" style="aspect=fixed;sketch=0;html=1;dashed=0;whitespace=wrap;verticalLabelPosition=bottom;verticalAlign=top;fillColor=#2875E2;strokeColor=#ffffff;points=[[0.005,0.63,0],[0.1,0.2,0],[0.9,0.2,0],[0.5,0,0],[0.995,0.63,0],[0.72,0.99,0],[0.5,1,0],[0.28,0.99,0]];shape=mxgraph.kubernetes.icon2;kubernetesLabel=1;prIcon=sc" parent="Kn3coWjFFDy4Nsz5DhpW-4" vertex="1">
          <mxGeometry x="81" y="246.84000000000003" width="50" height="48" as="geometry" />
        </mxCell>
        <mxCell id="YXAz1OWxP_jkYVnMhaAE-100" value="" style="aspect=fixed;sketch=0;html=1;dashed=0;whitespace=wrap;verticalLabelPosition=bottom;verticalAlign=top;fillColor=#2875E2;strokeColor=#ffffff;points=[[0.005,0.63,0],[0.1,0.2,0],[0.9,0.2,0],[0.5,0,0],[0.995,0.63,0],[0.72,0.99,0],[0.5,1,0],[0.28,0.99,0]];shape=mxgraph.kubernetes.icon2;kubernetesLabel=1;prIcon=pvc" parent="Kn3coWjFFDy4Nsz5DhpW-4" vertex="1">
          <mxGeometry x="155" y="246.84000000000003" width="50" height="48" as="geometry" />
        </mxCell>
        <mxCell id="YXAz1OWxP_jkYVnMhaAE-101" value="" style="aspect=fixed;sketch=0;html=1;dashed=0;whitespace=wrap;verticalLabelPosition=bottom;verticalAlign=top;fillColor=#2875E2;strokeColor=#ffffff;points=[[0.005,0.63,0],[0.1,0.2,0],[0.9,0.2,0],[0.5,0,0],[0.995,0.63,0],[0.72,0.99,0],[0.5,1,0],[0.28,0.99,0]];shape=mxgraph.kubernetes.icon2;kubernetesLabel=1;prIcon=cm" parent="Kn3coWjFFDy4Nsz5DhpW-4" vertex="1">
          <mxGeometry x="220" y="246.84000000000003" width="50" height="48" as="geometry" />
        </mxCell>
        <mxCell id="YXAz1OWxP_jkYVnMhaAE-103" style="edgeStyle=orthogonalEdgeStyle;rounded=0;orthogonalLoop=1;jettySize=auto;html=1;exitX=0.5;exitY=1;exitDx=0;exitDy=0;exitPerimeter=0;entryX=0.5;entryY=0;entryDx=0;entryDy=0;entryPerimeter=0;" parent="Kn3coWjFFDy4Nsz5DhpW-4" source="YXAz1OWxP_jkYVnMhaAE-78" target="YXAz1OWxP_jkYVnMhaAE-100" edge="1">
          <mxGeometry relative="1" as="geometry" />
        </mxCell>
        <mxCell id="YXAz1OWxP_jkYVnMhaAE-104" style="edgeStyle=orthogonalEdgeStyle;rounded=0;orthogonalLoop=1;jettySize=auto;html=1;exitX=0.995;exitY=0.63;exitDx=0;exitDy=0;exitPerimeter=0;entryX=0.5;entryY=0;entryDx=0;entryDy=0;entryPerimeter=0;" parent="Kn3coWjFFDy4Nsz5DhpW-4" source="YXAz1OWxP_jkYVnMhaAE-78" target="YXAz1OWxP_jkYVnMhaAE-101" edge="1">
          <mxGeometry relative="1" as="geometry" />
        </mxCell>
        <mxCell id="Kn3coWjFFDy4Nsz5DhpW-9" value="" style="endArrow=classic;html=1;rounded=0;exitX=0.5;exitY=1;exitDx=0;exitDy=0;exitPerimeter=0;" parent="Kn3coWjFFDy4Nsz5DhpW-4" source="YXAz1OWxP_jkYVnMhaAE-75" target="YXAz1OWxP_jkYVnMhaAE-78" edge="1">
          <mxGeometry width="50" height="50" relative="1" as="geometry">
            <mxPoint x="-360" y="340" as="sourcePoint" />
            <mxPoint x="-310" y="290" as="targetPoint" />
          </mxGeometry>
        </mxCell>
        <mxCell id="eW5MY0ortE8F1ylO4Fed-17" style="edgeStyle=orthogonalEdgeStyle;rounded=0;orthogonalLoop=1;jettySize=auto;html=1;exitX=0.995;exitY=0.63;exitDx=0;exitDy=0;exitPerimeter=0;entryX=0.005;entryY=0.63;entryDx=0;entryDy=0;entryPerimeter=0;" edge="1" parent="Kn3coWjFFDy4Nsz5DhpW-4" source="YXAz1OWxP_jkYVnMhaAE-99" target="YXAz1OWxP_jkYVnMhaAE-100">
          <mxGeometry relative="1" as="geometry" />
        </mxCell>
        <mxCell id="Kn3coWjFFDy4Nsz5DhpW-5" value="" style="group" parent="1" vertex="1" connectable="0">
          <mxGeometry x="1610" y="890" width="470" height="254.39999999999998" as="geometry" />
        </mxCell>
        <mxCell id="YXAz1OWxP_jkYVnMhaAE-89" value="" style="rounded=1;whiteSpace=wrap;html=1;absoluteArcSize=1;arcSize=14;strokeWidth=2;" parent="Kn3coWjFFDy4Nsz5DhpW-5" vertex="1">
          <mxGeometry x="25" y="38.39999999999998" width="445" height="216" as="geometry" />
        </mxCell>
        <mxCell id="YXAz1OWxP_jkYVnMhaAE-90" value="Server metrics:443" style="text;html=1;align=center;verticalAlign=middle;whiteSpace=wrap;rounded=0;" parent="Kn3coWjFFDy4Nsz5DhpW-5" vertex="1">
          <mxGeometry x="40" y="5.399999999999977" width="116.46" height="30" as="geometry" />
        </mxCell>
        <mxCell id="YXAz1OWxP_jkYVnMhaAE-106" value="" style="aspect=fixed;sketch=0;html=1;dashed=0;whitespace=wrap;verticalLabelPosition=bottom;verticalAlign=top;fillColor=#2875E2;strokeColor=#ffffff;points=[[0.005,0.63,0],[0.1,0.2,0],[0.9,0.2,0],[0.5,0,0],[0.995,0.63,0],[0.72,0.99,0],[0.5,1,0],[0.28,0.99,0]];shape=mxgraph.kubernetes.icon2;kubernetesLabel=1;prIcon=node" parent="Kn3coWjFFDy4Nsz5DhpW-5" vertex="1">
          <mxGeometry width="40" height="38.4" as="geometry" />
        </mxCell>
        <mxCell id="YXAz1OWxP_jkYVnMhaAE-112" value="" style="aspect=fixed;sketch=0;html=1;dashed=0;whitespace=wrap;verticalLabelPosition=bottom;verticalAlign=top;fillColor=#2875E2;strokeColor=#ffffff;points=[[0.005,0.63,0],[0.1,0.2,0],[0.9,0.2,0],[0.5,0,0],[0.995,0.63,0],[0.72,0.99,0],[0.5,1,0],[0.28,0.99,0]];shape=mxgraph.kubernetes.icon2;kubernetesLabel=1;prIcon=svc" parent="Kn3coWjFFDy4Nsz5DhpW-5" vertex="1">
          <mxGeometry x="106.46000000000004" y="54.789999999999964" width="50" height="48" as="geometry" />
        </mxCell>
        <mxCell id="YXAz1OWxP_jkYVnMhaAE-118" value="" style="rounded=1;whiteSpace=wrap;html=1;absoluteArcSize=1;arcSize=14;strokeWidth=2;" parent="Kn3coWjFFDy4Nsz5DhpW-5" vertex="1">
          <mxGeometry x="70" y="114.39999999999998" width="340" height="126" as="geometry" />
        </mxCell>
        <mxCell id="YXAz1OWxP_jkYVnMhaAE-107" value="" style="aspect=fixed;sketch=0;html=1;dashed=0;whitespace=wrap;verticalLabelPosition=bottom;verticalAlign=top;fillColor=#2875E2;strokeColor=#ffffff;points=[[0.005,0.63,0],[0.1,0.2,0],[0.9,0.2,0],[0.5,0,0],[0.995,0.63,0],[0.72,0.99,0],[0.5,1,0],[0.28,0.99,0]];shape=mxgraph.kubernetes.icon2;kubernetesLabel=1;prIcon=c_role" parent="Kn3coWjFFDy4Nsz5DhpW-5" vertex="1">
          <mxGeometry x="331" y="153.39999999999998" width="50" height="48" as="geometry" />
        </mxCell>
        <mxCell id="YXAz1OWxP_jkYVnMhaAE-108" value="" style="aspect=fixed;sketch=0;html=1;dashed=0;whitespace=wrap;verticalLabelPosition=bottom;verticalAlign=top;fillColor=#2875E2;strokeColor=#ffffff;points=[[0.005,0.63,0],[0.1,0.2,0],[0.9,0.2,0],[0.5,0,0],[0.995,0.63,0],[0.72,0.99,0],[0.5,1,0],[0.28,0.99,0]];shape=mxgraph.kubernetes.icon2;kubernetesLabel=1;prIcon=rb" parent="Kn3coWjFFDy4Nsz5DhpW-5" vertex="1">
          <mxGeometry x="259.59000000000015" y="176.79000000000008" width="50" height="48" as="geometry" />
        </mxCell>
        <mxCell id="YXAz1OWxP_jkYVnMhaAE-109" value="" style="aspect=fixed;sketch=0;html=1;dashed=0;whitespace=wrap;verticalLabelPosition=bottom;verticalAlign=top;fillColor=#2875E2;strokeColor=#ffffff;points=[[0.005,0.63,0],[0.1,0.2,0],[0.9,0.2,0],[0.5,0,0],[0.995,0.63,0],[0.72,0.99,0],[0.5,1,0],[0.28,0.99,0]];shape=mxgraph.kubernetes.icon2;kubernetesLabel=1;prIcon=crb" parent="Kn3coWjFFDy4Nsz5DhpW-5" vertex="1">
          <mxGeometry x="259.59000000000015" y="124.79000000000008" width="49.59" height="47.61" as="geometry" />
        </mxCell>
        <mxCell id="YXAz1OWxP_jkYVnMhaAE-110" value="" style="aspect=fixed;sketch=0;html=1;dashed=0;whitespace=wrap;verticalLabelPosition=bottom;verticalAlign=top;fillColor=#2875E2;strokeColor=#ffffff;points=[[0.005,0.63,0],[0.1,0.2,0],[0.9,0.2,0],[0.5,0,0],[0.995,0.63,0],[0.72,0.99,0],[0.5,1,0],[0.28,0.99,0]];shape=mxgraph.kubernetes.icon2;kubernetesLabel=1;prIcon=sa" parent="Kn3coWjFFDy4Nsz5DhpW-5" vertex="1">
          <mxGeometry x="189.99999999999955" y="150.79000000000008" width="50" height="48" as="geometry" />
        </mxCell>
        <mxCell id="YXAz1OWxP_jkYVnMhaAE-117" value="" style="aspect=fixed;sketch=0;html=1;dashed=0;whitespace=wrap;verticalLabelPosition=bottom;verticalAlign=top;fillColor=#2875E2;strokeColor=#ffffff;points=[[0.005,0.63,0],[0.1,0.2,0],[0.9,0.2,0],[0.5,0,0],[0.995,0.63,0],[0.72,0.99,0],[0.5,1,0],[0.28,0.99,0]];shape=mxgraph.kubernetes.icon2;kubernetesLabel=1;prIcon=pod" parent="Kn3coWjFFDy4Nsz5DhpW-5" vertex="1">
          <mxGeometry x="106.46000000000004" y="150.79000000000008" width="50" height="48" as="geometry" />
        </mxCell>
        <mxCell id="YXAz1OWxP_jkYVnMhaAE-113" value="" style="aspect=fixed;sketch=0;html=1;dashed=0;whitespace=wrap;verticalLabelPosition=bottom;verticalAlign=top;fillColor=#2875E2;strokeColor=#ffffff;points=[[0.005,0.63,0],[0.1,0.2,0],[0.9,0.2,0],[0.5,0,0],[0.995,0.63,0],[0.72,0.99,0],[0.5,1,0],[0.28,0.99,0]];shape=mxgraph.kubernetes.icon2;kubernetesLabel=1;prIcon=deploy" parent="Kn3coWjFFDy4Nsz5DhpW-5" vertex="1">
          <mxGeometry x="381" y="92.39999999999998" width="50" height="48" as="geometry" />
        </mxCell>
        <mxCell id="YXAz1OWxP_jkYVnMhaAE-121" style="edgeStyle=orthogonalEdgeStyle;rounded=0;orthogonalLoop=1;jettySize=auto;html=1;exitX=0.5;exitY=1;exitDx=0;exitDy=0;exitPerimeter=0;" parent="Kn3coWjFFDy4Nsz5DhpW-5" source="YXAz1OWxP_jkYVnMhaAE-112" target="YXAz1OWxP_jkYVnMhaAE-117" edge="1">
          <mxGeometry relative="1" as="geometry" />
        </mxCell>
        <mxCell id="YXAz1OWxP_jkYVnMhaAE-123" style="edgeStyle=orthogonalEdgeStyle;rounded=0;orthogonalLoop=1;jettySize=auto;html=1;exitX=0.995;exitY=0.63;exitDx=0;exitDy=0;exitPerimeter=0;entryX=0.005;entryY=0.63;entryDx=0;entryDy=0;entryPerimeter=0;" parent="Kn3coWjFFDy4Nsz5DhpW-5" source="YXAz1OWxP_jkYVnMhaAE-117" target="YXAz1OWxP_jkYVnMhaAE-110" edge="1">
          <mxGeometry relative="1" as="geometry" />
        </mxCell>
        <mxCell id="YXAz1OWxP_jkYVnMhaAE-125" style="edgeStyle=orthogonalEdgeStyle;rounded=0;orthogonalLoop=1;jettySize=auto;html=1;exitX=0.005;exitY=0.63;exitDx=0;exitDy=0;exitPerimeter=0;entryX=0.5;entryY=0;entryDx=0;entryDy=0;entryPerimeter=0;" parent="Kn3coWjFFDy4Nsz5DhpW-5" source="YXAz1OWxP_jkYVnMhaAE-109" target="YXAz1OWxP_jkYVnMhaAE-110" edge="1">
          <mxGeometry relative="1" as="geometry" />
        </mxCell>
        <mxCell id="YXAz1OWxP_jkYVnMhaAE-129" style="edgeStyle=orthogonalEdgeStyle;rounded=0;orthogonalLoop=1;jettySize=auto;html=1;exitX=0.995;exitY=0.63;exitDx=0;exitDy=0;exitPerimeter=0;entryX=0.5;entryY=0;entryDx=0;entryDy=0;entryPerimeter=0;" parent="Kn3coWjFFDy4Nsz5DhpW-5" source="YXAz1OWxP_jkYVnMhaAE-109" target="YXAz1OWxP_jkYVnMhaAE-107" edge="1">
          <mxGeometry relative="1" as="geometry" />
        </mxCell>
        <mxCell id="YXAz1OWxP_jkYVnMhaAE-130" style="edgeStyle=orthogonalEdgeStyle;rounded=0;orthogonalLoop=1;jettySize=auto;html=1;exitX=0.995;exitY=0.63;exitDx=0;exitDy=0;exitPerimeter=0;entryX=0.5;entryY=1;entryDx=0;entryDy=0;entryPerimeter=0;" parent="Kn3coWjFFDy4Nsz5DhpW-5" source="YXAz1OWxP_jkYVnMhaAE-108" target="YXAz1OWxP_jkYVnMhaAE-107" edge="1">
          <mxGeometry relative="1" as="geometry" />
        </mxCell>
        <mxCell id="YXAz1OWxP_jkYVnMhaAE-131" style="edgeStyle=orthogonalEdgeStyle;rounded=0;orthogonalLoop=1;jettySize=auto;html=1;exitX=0.005;exitY=0.63;exitDx=0;exitDy=0;exitPerimeter=0;entryX=0.5;entryY=1;entryDx=0;entryDy=0;entryPerimeter=0;" parent="Kn3coWjFFDy4Nsz5DhpW-5" source="YXAz1OWxP_jkYVnMhaAE-108" target="YXAz1OWxP_jkYVnMhaAE-110" edge="1">
          <mxGeometry relative="1" as="geometry" />
        </mxCell>
        <mxCell id="Kn3coWjFFDy4Nsz5DhpW-6" value="" style="group" parent="1" vertex="1" connectable="0">
          <mxGeometry x="2260" y="890" width="200" height="253.78999999999996" as="geometry" />
        </mxCell>
        <mxCell id="YXAz1OWxP_jkYVnMhaAE-22" value="" style="rounded=1;whiteSpace=wrap;html=1;absoluteArcSize=1;arcSize=14;strokeWidth=2;" parent="Kn3coWjFFDy4Nsz5DhpW-6" vertex="1">
          <mxGeometry y="33.789999999999964" width="200" height="220" as="geometry" />
        </mxCell>
        <mxCell id="YXAz1OWxP_jkYVnMhaAE-27" value="Adminer Node:9090" style="text;html=1;align=center;verticalAlign=middle;whiteSpace=wrap;rounded=0;" parent="Kn3coWjFFDy4Nsz5DhpW-6" vertex="1">
          <mxGeometry x="40" y="3.7899999999999636" width="110" height="30" as="geometry" />
        </mxCell>
        <mxCell id="YXAz1OWxP_jkYVnMhaAE-35" value="" style="aspect=fixed;sketch=0;html=1;dashed=0;whitespace=wrap;verticalLabelPosition=bottom;verticalAlign=top;fillColor=#2875E2;strokeColor=#ffffff;points=[[0.005,0.63,0],[0.1,0.2,0],[0.9,0.2,0],[0.5,0,0],[0.995,0.63,0],[0.72,0.99,0],[0.5,1,0],[0.28,0.99,0]];shape=mxgraph.kubernetes.icon2;kubernetesLabel=1;prIcon=svc" parent="Kn3coWjFFDy4Nsz5DhpW-6" vertex="1">
          <mxGeometry x="70" y="46.789999999999964" width="50" height="48" as="geometry" />
        </mxCell>
        <mxCell id="YXAz1OWxP_jkYVnMhaAE-37" value="" style="aspect=fixed;sketch=0;html=1;dashed=0;whitespace=wrap;verticalLabelPosition=bottom;verticalAlign=top;fillColor=#2875E2;strokeColor=#ffffff;points=[[0.005,0.63,0],[0.1,0.2,0],[0.9,0.2,0],[0.5,0,0],[0.995,0.63,0],[0.72,0.99,0],[0.5,1,0],[0.28,0.99,0]];shape=mxgraph.kubernetes.icon2;kubernetesLabel=1;prIcon=node" parent="Kn3coWjFFDy4Nsz5DhpW-6" vertex="1">
          <mxGeometry width="32.07" height="30.79" as="geometry" />
        </mxCell>
        <mxCell id="YXAz1OWxP_jkYVnMhaAE-42" value="" style="rounded=1;whiteSpace=wrap;html=1;absoluteArcSize=1;arcSize=14;strokeWidth=2;" parent="Kn3coWjFFDy4Nsz5DhpW-6" vertex="1">
          <mxGeometry x="35" y="127.78999999999996" width="130" height="100" as="geometry" />
        </mxCell>
        <mxCell id="YXAz1OWxP_jkYVnMhaAE-32" value="" style="aspect=fixed;sketch=0;html=1;dashed=0;whitespace=wrap;verticalLabelPosition=bottom;verticalAlign=top;fillColor=#2875E2;strokeColor=#ffffff;points=[[0.005,0.63,0],[0.1,0.2,0],[0.9,0.2,0],[0.5,0,0],[0.995,0.63,0],[0.72,0.99,0],[0.5,1,0],[0.28,0.99,0]];shape=mxgraph.kubernetes.icon2;kubernetesLabel=1;prIcon=pod" parent="Kn3coWjFFDy4Nsz5DhpW-6" vertex="1">
          <mxGeometry x="70" y="153.78999999999996" width="50" height="48" as="geometry" />
        </mxCell>
        <mxCell id="YXAz1OWxP_jkYVnMhaAE-36" value="" style="aspect=fixed;sketch=0;html=1;dashed=0;whitespace=wrap;verticalLabelPosition=bottom;verticalAlign=top;fillColor=#2875E2;strokeColor=#ffffff;points=[[0.005,0.63,0],[0.1,0.2,0],[0.9,0.2,0],[0.5,0,0],[0.995,0.63,0],[0.72,0.99,0],[0.5,1,0],[0.28,0.99,0]];shape=mxgraph.kubernetes.icon2;kubernetesLabel=1;prIcon=deploy" parent="Kn3coWjFFDy4Nsz5DhpW-6" vertex="1">
          <mxGeometry x="140" y="105.78999999999996" width="50" height="48" as="geometry" />
        </mxCell>
        <mxCell id="YXAz1OWxP_jkYVnMhaAE-60" style="edgeStyle=orthogonalEdgeStyle;rounded=0;orthogonalLoop=1;jettySize=auto;html=1;exitX=0.5;exitY=1;exitDx=0;exitDy=0;exitPerimeter=0;" parent="Kn3coWjFFDy4Nsz5DhpW-6" source="YXAz1OWxP_jkYVnMhaAE-35" target="YXAz1OWxP_jkYVnMhaAE-32" edge="1">
          <mxGeometry relative="1" as="geometry" />
        </mxCell>
        <mxCell id="Kn3coWjFFDy4Nsz5DhpW-8" value="" style="group" parent="1" vertex="1" connectable="0">
          <mxGeometry x="1610" y="499.99999999999994" width="510" height="361.20000000000005" as="geometry" />
        </mxCell>
        <mxCell id="YXAz1OWxP_jkYVnMhaAE-24" value="" style="rounded=1;whiteSpace=wrap;html=1;absoluteArcSize=1;arcSize=14;strokeWidth=2;" parent="Kn3coWjFFDy4Nsz5DhpW-8" vertex="1">
          <mxGeometry y="33" width="510" height="328.2" as="geometry" />
        </mxCell>
        <mxCell id="YXAz1OWxP_jkYVnMhaAE-28" value="McKingApi Node:8080" style="text;html=1;align=center;verticalAlign=middle;whiteSpace=wrap;rounded=0;" parent="Kn3coWjFFDy4Nsz5DhpW-8" vertex="1">
          <mxGeometry x="23.539999999999964" y="2.2100000000000364" width="166.46" height="30" as="geometry" />
        </mxCell>
        <mxCell id="YXAz1OWxP_jkYVnMhaAE-30" value="" style="aspect=fixed;sketch=0;html=1;dashed=0;whitespace=wrap;verticalLabelPosition=bottom;verticalAlign=top;fillColor=#2875E2;strokeColor=#ffffff;points=[[0.005,0.63,0],[0.1,0.2,0],[0.9,0.2,0],[0.5,0,0],[0.995,0.63,0],[0.72,0.99,0],[0.5,1,0],[0.28,0.99,0]];shape=mxgraph.kubernetes.icon2;kubernetesLabel=1;prIcon=api" parent="Kn3coWjFFDy4Nsz5DhpW-8" vertex="1">
          <mxGeometry width="31.25" height="30" as="geometry" />
        </mxCell>
        <mxCell id="YXAz1OWxP_jkYVnMhaAE-63" style="edgeStyle=orthogonalEdgeStyle;rounded=0;orthogonalLoop=1;jettySize=auto;html=1;exitX=0.5;exitY=1;exitDx=0;exitDy=0;exitPerimeter=0;" parent="Kn3coWjFFDy4Nsz5DhpW-8" source="YXAz1OWxP_jkYVnMhaAE-46" target="YXAz1OWxP_jkYVnMhaAE-56" edge="1">
          <mxGeometry relative="1" as="geometry" />
        </mxCell>
        <mxCell id="YXAz1OWxP_jkYVnMhaAE-46" value="" style="aspect=fixed;sketch=0;html=1;dashed=0;whitespace=wrap;verticalLabelPosition=bottom;verticalAlign=top;fillColor=#2875E2;strokeColor=#ffffff;points=[[0.005,0.63,0],[0.1,0.2,0],[0.9,0.2,0],[0.5,0,0],[0.995,0.63,0],[0.72,0.99,0],[0.5,1,0],[0.28,0.99,0]];shape=mxgraph.kubernetes.icon2;kubernetesLabel=1;prIcon=svc" parent="Kn3coWjFFDy4Nsz5DhpW-8" vertex="1">
          <mxGeometry x="189.99999999999997" y="41.200000000000045" width="50" height="48" as="geometry" />
        </mxCell>
        <mxCell id="YXAz1OWxP_jkYVnMhaAE-47" value="" style="rounded=1;whiteSpace=wrap;html=1;absoluteArcSize=1;arcSize=14;strokeWidth=2;" parent="Kn3coWjFFDy4Nsz5DhpW-8" vertex="1">
          <mxGeometry x="30" y="103" width="390" height="198.2" as="geometry" />
        </mxCell>
        <mxCell id="YXAz1OWxP_jkYVnMhaAE-98" style="edgeStyle=orthogonalEdgeStyle;rounded=0;orthogonalLoop=1;jettySize=auto;html=1;exitX=0.5;exitY=1;exitDx=0;exitDy=0;exitPerimeter=0;" parent="Kn3coWjFFDy4Nsz5DhpW-8" source="YXAz1OWxP_jkYVnMhaAE-51" target="YXAz1OWxP_jkYVnMhaAE-97" edge="1">
          <mxGeometry relative="1" as="geometry" />
        </mxCell>
        <mxCell id="YXAz1OWxP_jkYVnMhaAE-51" value="" style="aspect=fixed;sketch=0;html=1;dashed=0;whitespace=wrap;verticalLabelPosition=bottom;verticalAlign=top;fillColor=#2875E2;strokeColor=#ffffff;points=[[0.005,0.63,0],[0.1,0.2,0],[0.9,0.2,0],[0.5,0,0],[0.995,0.63,0],[0.72,0.99,0],[0.5,1,0],[0.28,0.99,0]];shape=mxgraph.kubernetes.icon2;kubernetesLabel=1;prIcon=deploy" parent="Kn3coWjFFDy4Nsz5DhpW-8" vertex="1">
          <mxGeometry x="450" y="79" width="50" height="48" as="geometry" />
        </mxCell>
        <mxCell id="YXAz1OWxP_jkYVnMhaAE-31" value="" style="aspect=fixed;sketch=0;html=1;dashed=0;whitespace=wrap;verticalLabelPosition=bottom;verticalAlign=top;fillColor=#2875E2;strokeColor=#ffffff;points=[[0.005,0.63,0],[0.1,0.2,0],[0.9,0.2,0],[0.5,0,0],[0.995,0.63,0],[0.72,0.99,0],[0.5,1,0],[0.28,0.99,0]];shape=mxgraph.kubernetes.icon2;kubernetesLabel=1;prIcon=hpa" parent="Kn3coWjFFDy4Nsz5DhpW-8" vertex="1">
          <mxGeometry x="320" y="41.200000000000045" width="50" height="48" as="geometry" />
        </mxCell>
        <mxCell id="YXAz1OWxP_jkYVnMhaAE-54" value="" style="aspect=fixed;sketch=0;html=1;dashed=0;whitespace=wrap;verticalLabelPosition=bottom;verticalAlign=top;fillColor=#2875E2;strokeColor=#ffffff;points=[[0.005,0.63,0],[0.1,0.2,0],[0.9,0.2,0],[0.5,0,0],[0.995,0.63,0],[0.72,0.99,0],[0.5,1,0],[0.28,0.99,0]];shape=mxgraph.kubernetes.icon2;kubernetesLabel=1;prIcon=pod" parent="Kn3coWjFFDy4Nsz5DhpW-8" vertex="1">
          <mxGeometry x="106.76999999999998" y="190.14999999999998" width="50" height="48" as="geometry" />
        </mxCell>
        <mxCell id="YXAz1OWxP_jkYVnMhaAE-55" value="" style="aspect=fixed;sketch=0;html=1;dashed=0;whitespace=wrap;verticalLabelPosition=bottom;verticalAlign=top;fillColor=#2875E2;strokeColor=#ffffff;points=[[0.005,0.63,0],[0.1,0.2,0],[0.9,0.2,0],[0.5,0,0],[0.995,0.63,0],[0.72,0.99,0],[0.5,1,0],[0.28,0.99,0]];shape=mxgraph.kubernetes.icon2;kubernetesLabel=1;prIcon=pod" parent="Kn3coWjFFDy4Nsz5DhpW-8" vertex="1">
          <mxGeometry x="190" y="190.14999999999998" width="50" height="48" as="geometry" />
        </mxCell>
        <mxCell id="YXAz1OWxP_jkYVnMhaAE-56" value="" style="aspect=fixed;sketch=0;html=1;dashed=0;whitespace=wrap;verticalLabelPosition=bottom;verticalAlign=top;fillColor=#2875E2;strokeColor=#ffffff;points=[[0.005,0.63,0],[0.1,0.2,0],[0.9,0.2,0],[0.5,0,0],[0.995,0.63,0],[0.72,0.99,0],[0.5,1,0],[0.28,0.99,0]];shape=mxgraph.kubernetes.icon2;kubernetesLabel=1;prIcon=pod" parent="Kn3coWjFFDy4Nsz5DhpW-8" vertex="1">
          <mxGeometry x="270" y="190.14999999999998" width="50" height="48" as="geometry" />
        </mxCell>
        <mxCell id="YXAz1OWxP_jkYVnMhaAE-61" style="edgeStyle=orthogonalEdgeStyle;rounded=0;orthogonalLoop=1;jettySize=auto;html=1;entryX=0.5;entryY=0;entryDx=0;entryDy=0;entryPerimeter=0;" parent="Kn3coWjFFDy4Nsz5DhpW-8" source="YXAz1OWxP_jkYVnMhaAE-46" target="YXAz1OWxP_jkYVnMhaAE-55" edge="1">
          <mxGeometry relative="1" as="geometry">
            <mxPoint x="218" y="191.20000000000005" as="targetPoint" />
          </mxGeometry>
        </mxCell>
        <mxCell id="YXAz1OWxP_jkYVnMhaAE-62" style="edgeStyle=orthogonalEdgeStyle;rounded=0;orthogonalLoop=1;jettySize=auto;html=1;" parent="Kn3coWjFFDy4Nsz5DhpW-8" edge="1">
          <mxGeometry relative="1" as="geometry">
            <mxPoint x="132" y="191.20000000000005" as="targetPoint" />
            <mxPoint x="132" y="140.00000000000006" as="sourcePoint" />
          </mxGeometry>
        </mxCell>
        <mxCell id="YXAz1OWxP_jkYVnMhaAE-64" style="edgeStyle=orthogonalEdgeStyle;rounded=0;orthogonalLoop=1;jettySize=auto;html=1;entryX=0.5;entryY=0;entryDx=0;entryDy=0;entryPerimeter=0;" parent="Kn3coWjFFDy4Nsz5DhpW-8" target="YXAz1OWxP_jkYVnMhaAE-56" edge="1">
          <mxGeometry relative="1" as="geometry">
            <mxPoint x="297.39999999999975" y="179.3579999999999" as="targetPoint" />
            <mxPoint x="295" y="140.00000000000006" as="sourcePoint" />
            <Array as="points">
              <mxPoint x="295" y="140" />
            </Array>
          </mxGeometry>
        </mxCell>
        <mxCell id="YXAz1OWxP_jkYVnMhaAE-34" value="" style="aspect=fixed;sketch=0;html=1;dashed=0;whitespace=wrap;verticalLabelPosition=bottom;verticalAlign=top;fillColor=#2875E2;strokeColor=#ffffff;points=[[0.005,0.63,0],[0.1,0.2,0],[0.9,0.2,0],[0.5,0,0],[0.995,0.63,0],[0.72,0.99,0],[0.5,1,0],[0.28,0.99,0]];shape=mxgraph.kubernetes.icon2;kubernetesLabel=1;prIcon=secret" parent="Kn3coWjFFDy4Nsz5DhpW-8" vertex="1">
          <mxGeometry x="197.78000000000017" y="251.20000000000005" width="34.43" height="33.05" as="geometry" />
        </mxCell>
        <mxCell id="YXAz1OWxP_jkYVnMhaAE-93" style="edgeStyle=orthogonalEdgeStyle;rounded=0;orthogonalLoop=1;jettySize=auto;html=1;exitX=0.5;exitY=1;exitDx=0;exitDy=0;exitPerimeter=0;entryX=0.005;entryY=0.63;entryDx=0;entryDy=0;entryPerimeter=0;" parent="Kn3coWjFFDy4Nsz5DhpW-8" source="YXAz1OWxP_jkYVnMhaAE-54" target="YXAz1OWxP_jkYVnMhaAE-34" edge="1">
          <mxGeometry relative="1" as="geometry" />
        </mxCell>
        <mxCell id="YXAz1OWxP_jkYVnMhaAE-94" style="edgeStyle=orthogonalEdgeStyle;rounded=0;orthogonalLoop=1;jettySize=auto;html=1;exitX=0.5;exitY=1;exitDx=0;exitDy=0;exitPerimeter=0;entryX=0.5;entryY=0;entryDx=0;entryDy=0;entryPerimeter=0;" parent="Kn3coWjFFDy4Nsz5DhpW-8" source="YXAz1OWxP_jkYVnMhaAE-55" target="YXAz1OWxP_jkYVnMhaAE-34" edge="1">
          <mxGeometry relative="1" as="geometry" />
        </mxCell>
        <mxCell id="YXAz1OWxP_jkYVnMhaAE-95" style="edgeStyle=orthogonalEdgeStyle;rounded=0;orthogonalLoop=1;jettySize=auto;html=1;exitX=0.5;exitY=1;exitDx=0;exitDy=0;exitPerimeter=0;entryX=0.995;entryY=0.63;entryDx=0;entryDy=0;entryPerimeter=0;" parent="Kn3coWjFFDy4Nsz5DhpW-8" source="YXAz1OWxP_jkYVnMhaAE-56" target="YXAz1OWxP_jkYVnMhaAE-34" edge="1">
          <mxGeometry relative="1" as="geometry" />
        </mxCell>
        <mxCell id="YXAz1OWxP_jkYVnMhaAE-96" style="edgeStyle=orthogonalEdgeStyle;rounded=0;orthogonalLoop=1;jettySize=auto;html=1;exitX=0.995;exitY=0.63;exitDx=0;exitDy=0;exitPerimeter=0;entryX=0.5;entryY=0;entryDx=0;entryDy=0;entryPerimeter=0;" parent="Kn3coWjFFDy4Nsz5DhpW-8" source="YXAz1OWxP_jkYVnMhaAE-31" target="YXAz1OWxP_jkYVnMhaAE-51" edge="1">
          <mxGeometry relative="1" as="geometry" />
        </mxCell>
        <mxCell id="YXAz1OWxP_jkYVnMhaAE-97" value="" style="aspect=fixed;sketch=0;html=1;dashed=0;whitespace=wrap;verticalLabelPosition=bottom;verticalAlign=top;fillColor=#2875E2;strokeColor=#ffffff;points=[[0.005,0.63,0],[0.1,0.2,0],[0.9,0.2,0],[0.5,0,0],[0.995,0.63,0],[0.72,0.99,0],[0.5,1,0],[0.28,0.99,0]];shape=mxgraph.kubernetes.icon2;kubernetesLabel=1;prIcon=rs" parent="Kn3coWjFFDy4Nsz5DhpW-8" vertex="1">
          <mxGeometry x="400" y="127" width="43.43" height="41.7" as="geometry" />
        </mxCell>
        <mxCell id="YXAz1OWxP_jkYVnMhaAE-135" value="" style="aspect=fixed;sketch=0;html=1;dashed=0;whitespace=wrap;verticalLabelPosition=bottom;verticalAlign=top;fillColor=#2875E2;strokeColor=#ffffff;points=[[0.005,0.63,0],[0.1,0.2,0],[0.9,0.2,0],[0.5,0,0],[0.995,0.63,0],[0.72,0.99,0],[0.5,1,0],[0.28,0.99,0]];shape=mxgraph.kubernetes.icon2;kubernetesLabel=1;prIcon=pod" parent="Kn3coWjFFDy4Nsz5DhpW-8" vertex="1">
          <mxGeometry x="40" y="190.14999999999998" width="50" height="48" as="geometry" />
        </mxCell>
        <mxCell id="YXAz1OWxP_jkYVnMhaAE-136" value="" style="aspect=fixed;sketch=0;html=1;dashed=0;whitespace=wrap;verticalLabelPosition=bottom;verticalAlign=top;fillColor=#2875E2;strokeColor=#ffffff;points=[[0.005,0.63,0],[0.1,0.2,0],[0.9,0.2,0],[0.5,0,0],[0.995,0.63,0],[0.72,0.99,0],[0.5,1,0],[0.28,0.99,0]];shape=mxgraph.kubernetes.icon2;kubernetesLabel=1;prIcon=pod" parent="Kn3coWjFFDy4Nsz5DhpW-8" vertex="1">
          <mxGeometry x="340" y="190.14999999999998" width="50" height="48" as="geometry" />
        </mxCell>
        <mxCell id="YXAz1OWxP_jkYVnMhaAE-137" style="edgeStyle=orthogonalEdgeStyle;rounded=0;orthogonalLoop=1;jettySize=auto;html=1;exitX=0.5;exitY=1;exitDx=0;exitDy=0;exitPerimeter=0;entryX=0.51;entryY=0.016;entryDx=0;entryDy=0;entryPerimeter=0;" parent="Kn3coWjFFDy4Nsz5DhpW-8" source="YXAz1OWxP_jkYVnMhaAE-46" target="YXAz1OWxP_jkYVnMhaAE-136" edge="1">
          <mxGeometry relative="1" as="geometry" />
        </mxCell>
        <mxCell id="YXAz1OWxP_jkYVnMhaAE-138" style="edgeStyle=orthogonalEdgeStyle;rounded=0;orthogonalLoop=1;jettySize=auto;html=1;exitX=0.5;exitY=1;exitDx=0;exitDy=0;exitPerimeter=0;" parent="Kn3coWjFFDy4Nsz5DhpW-8" source="YXAz1OWxP_jkYVnMhaAE-46" edge="1">
          <mxGeometry relative="1" as="geometry">
            <mxPoint x="65" y="190.00000000000006" as="targetPoint" />
          </mxGeometry>
        </mxCell>
        <mxCell id="YXAz1OWxP_jkYVnMhaAE-139" style="edgeStyle=orthogonalEdgeStyle;rounded=0;orthogonalLoop=1;jettySize=auto;html=1;exitX=0.5;exitY=1;exitDx=0;exitDy=0;exitPerimeter=0;entryX=0.995;entryY=0.63;entryDx=0;entryDy=0;entryPerimeter=0;" parent="Kn3coWjFFDy4Nsz5DhpW-8" source="YXAz1OWxP_jkYVnMhaAE-136" target="YXAz1OWxP_jkYVnMhaAE-34" edge="1">
          <mxGeometry relative="1" as="geometry" />
        </mxCell>
        <mxCell id="YXAz1OWxP_jkYVnMhaAE-140" style="edgeStyle=orthogonalEdgeStyle;rounded=0;orthogonalLoop=1;jettySize=auto;html=1;exitX=0.5;exitY=1;exitDx=0;exitDy=0;exitPerimeter=0;entryX=0.005;entryY=0.63;entryDx=0;entryDy=0;entryPerimeter=0;" parent="Kn3coWjFFDy4Nsz5DhpW-8" source="YXAz1OWxP_jkYVnMhaAE-135" target="YXAz1OWxP_jkYVnMhaAE-34" edge="1">
          <mxGeometry relative="1" as="geometry" />
        </mxCell>
      </root>
    </mxGraphModel>
  </diagram>
</mxfile>
